<svg width="294" height="144" viewBox="0 0 294 144" fill="none" xmlns="http://www.w3.org/2000/svg">
<g opacity="0.5">
<path d="M104.14 3.84437C107.652 1.81685 113.345 1.81685 116.857 3.84436L212.236 58.9115C215.748 60.9391 215.748 64.2263 212.236 66.2538L193.16 77.2673C189.649 79.2948 183.955 79.2948 180.443 77.2673L85.0641 22.2001C81.5523 20.1726 81.5523 16.8853 85.0641 14.8578L104.14 3.84437Z" fill="#F2F2F2"/>
<path d="M107.268 11.2165C109.901 9.69585 114.172 9.69586 116.806 11.2165L126.24 16.6636C128.874 18.1842 128.874 20.6496 126.24 22.1703L116.806 27.6173C114.172 29.138 109.901 29.138 107.268 27.6173L97.8331 22.1703C95.1992 20.6496 95.1993 18.1842 97.8331 16.6636L107.268 11.2165Z" fill="#D9DBEB"/>
<path d="M107.665 11.4459C110.079 10.052 113.994 10.052 116.408 11.4459L125.843 16.893C128.257 18.2869 128.257 20.5469 125.843 21.9408L116.408 27.3879C113.994 28.7818 110.079 28.7818 107.665 27.3879L98.2305 21.9408C95.8161 20.5469 95.8161 18.2869 98.2305 16.893L107.665 11.4459Z" stroke="black" stroke-opacity="0.1" stroke-width="0.917786"/>
<g clip-path="url(#clip0_13204_94695)">
<path opacity="0.2" d="M106.124 21.4651C107.648 22.345 111.001 21.8355 113.613 20.3272C116.226 18.819 117.108 16.883 115.584 16.0032C114.06 15.1233 110.707 15.6328 108.095 17.1411C105.482 18.6494 104.6 20.5853 106.124 21.4651Z" fill="black"/>
<path d="M106.124 21.4651C107.648 22.345 111.001 21.8355 113.613 20.3272C116.226 18.819 117.108 16.883 115.584 16.0032C114.06 15.1233 110.707 15.6328 108.095 17.1411C105.482 18.6494 104.6 20.5853 106.124 21.4651Z" stroke="black" stroke-width="1.36549" stroke-linecap="round" stroke-linejoin="round"/>
<path d="M115.584 16.0032L117.949 17.3687C119.473 18.2486 118.59 20.185 115.978 21.6927C113.367 23.2005 110.013 23.7105 108.489 22.8306L106.124 21.4652" stroke="black" stroke-width="1.36549" stroke-linecap="round" stroke-linejoin="round"/>
<path d="M116.064 18.1009L118.429 19.4664" stroke="black" stroke-width="1.36549" stroke-linecap="round" stroke-linejoin="round"/>
<path d="M113.613 20.3273L115.978 21.6928" stroke="black" stroke-width="1.36549" stroke-linecap="round" stroke-linejoin="round"/>
<path d="M109.757 21.7422L112.122 23.1077" stroke="black" stroke-width="1.36549" stroke-linecap="round" stroke-linejoin="round"/>
</g>
<path d="M104.793 4.01861C108.137 2.08764 113.56 2.08764 116.904 4.01861L212.889 59.4354C216.233 61.3664 216.233 64.4971 212.889 66.4281L193.208 77.7911C189.863 79.7221 184.44 79.7221 181.096 77.7911L85.1112 22.3743C81.7666 20.4434 81.7666 17.3126 85.1112 15.3817L104.793 4.01861Z" stroke="black" stroke-width="1.5"/>
<rect width="110.834" height="12.2372" transform="matrix(0.866025 0.5 0 1 85.1111 22.3743)" fill="#E5E5E5" stroke="black" stroke-width="1.5"/>
<rect width="22.7261" height="12.2372" transform="matrix(0.866025 -0.5 0 1 193.208 77.7911)" fill="#E5E5E5" stroke="black" stroke-width="1.5"/>
<path d="M82.6025 18.878C82.6025 20.2434 83.5611 21.4795 85.1109 22.3743V34.6115C83.5611 33.7167 82.6025 32.4805 82.6025 31.1151V18.878Z" fill="#E5E5E5" stroke="black" stroke-width="1.5"/>
<path d="M181.096 77.7911C184.44 79.7221 189.863 79.7221 193.207 77.7911V90.0283C189.863 91.9593 184.44 91.9593 181.096 90.0283V77.7911Z" fill="#E5E5E5" stroke="black" stroke-width="1.5"/>
<path d="M215.397 62.9318C215.397 64.2972 214.439 65.5333 212.889 66.4281V78.6652C214.439 77.7705 215.397 76.5343 215.397 75.1689V62.9318Z" fill="#E5E5E5" stroke="black" stroke-width="1.5"/>
<path d="M179.142 19.3688C182.487 17.4379 187.909 17.4379 191.254 19.3688L287.239 74.7856C290.583 76.7166 290.583 79.8473 287.239 81.7783L267.557 93.1414C264.213 95.0723 258.79 95.0723 255.445 93.1414L159.461 37.7246C156.116 35.7936 156.116 32.6629 159.461 30.7319L179.142 19.3688Z" fill="#E5E5E5" stroke="black" stroke-width="1.5"/>
<rect width="110.834" height="12.2372" transform="matrix(0.866025 0.5 0 1 159.461 37.7245)" fill="#E5E5E5" stroke="black" stroke-width="1.5"/>
<rect width="22.7261" height="12.2372" transform="matrix(0.866025 -0.5 0 1 267.557 93.1414)" fill="#E5E5E5" stroke="black" stroke-width="1.5"/>
<path d="M156.952 34.2282C156.952 35.5936 157.911 36.8298 159.461 37.7245V49.9617C157.911 49.0669 156.952 47.8308 156.952 46.4654V34.2282Z" fill="#E5E5E5" stroke="black" stroke-width="1.5"/>
<path d="M255.446 93.1414C258.79 95.0723 264.213 95.0723 267.557 93.1414V105.379C264.213 107.309 258.79 107.309 255.446 105.379V93.1414Z" fill="#E5E5E5" stroke="black" stroke-width="1.5"/>
<path d="M289.747 78.2819C289.747 79.6473 288.788 80.8835 287.239 81.7783V94.0154C288.788 93.1206 289.747 91.8845 289.747 90.5191V78.2819Z" fill="#E5E5E5" stroke="black" stroke-width="1.5"/>
<path d="M181.319 26.1866C183.953 24.666 188.223 24.666 190.857 26.1866L200.395 31.6934C203.029 33.214 203.029 35.6794 200.395 37.2001L190.857 42.7068C188.223 44.2274 183.953 44.2274 181.319 42.7068L171.781 37.2001C169.147 35.6794 169.147 33.214 171.781 31.6934L181.319 26.1866Z" fill="#E8BCE0"/>
<path d="M181.717 26.4161C184.131 25.0222 188.045 25.0222 190.46 26.4161L199.998 31.9228C202.412 33.3167 202.412 35.5767 199.998 36.9706L190.46 42.4774C188.045 43.8713 184.131 43.8713 181.717 42.4774L172.179 36.9706C169.764 35.5767 169.764 33.3167 172.179 31.9228L181.717 26.4161Z" stroke="black" stroke-opacity="0.2" stroke-width="0.917786"/>
<g clip-path="url(#clip1_13204_94695)">
<path opacity="0.2" d="M187.678 31.2342L186.486 30.5459C186.266 30.4191 185.91 30.4191 185.691 30.5459L179.332 34.217C179.113 34.3437 179.113 34.5492 179.332 34.6759L180.524 35.3642C180.744 35.491 181.1 35.491 181.319 35.3642L187.678 31.6931C187.897 31.5664 187.897 31.3609 187.678 31.2342Z" fill="black"/>
<path opacity="0.2" d="M192.844 34.217L191.652 33.5286C191.433 33.4019 191.077 33.4019 190.857 33.5286L184.499 37.1998C184.279 37.3265 184.279 37.532 184.499 37.6587L185.691 38.347C185.91 38.4737 186.266 38.4737 186.486 38.347L192.844 34.6759C193.064 34.5492 193.064 34.3437 192.844 34.217Z" fill="black"/>
<path d="M187.678 31.2342L186.486 30.5459C186.266 30.4191 185.91 30.4191 185.691 30.5459L179.332 34.217C179.113 34.3437 179.113 34.5492 179.332 34.6759L180.524 35.3642C180.744 35.491 181.1 35.491 181.319 35.3642L187.678 31.6931C187.897 31.5664 187.897 31.3609 187.678 31.2342Z" stroke="black" stroke-width="1.37668" stroke-linecap="round" stroke-linejoin="round"/>
<path d="M192.844 34.217L191.652 33.5286C191.433 33.4019 191.077 33.4019 190.857 33.5286L184.499 37.1998C184.279 37.3265 184.279 37.532 184.499 37.6587L185.691 38.347C185.91 38.4737 186.266 38.4737 186.486 38.347L192.844 34.6759C193.064 34.5492 193.064 34.3437 192.844 34.217Z" stroke="black" stroke-width="1.37668" stroke-linecap="round" stroke-linejoin="round"/>
<path d="M192.049 35.1348L193.242 35.8231C193.347 35.884 193.406 35.9665 193.406 36.0526C193.406 36.1386 193.347 36.2211 193.242 36.282L189.267 38.5765C189.162 38.6373 189.019 38.6715 188.87 38.6715C188.721 38.6715 188.578 38.6373 188.473 38.5765L187.28 37.8881" stroke="black" stroke-width="1.37668" stroke-linecap="round" stroke-linejoin="round"/>
<path d="M180.127 33.7581L178.935 33.0698C178.829 33.0089 178.77 32.9264 178.77 32.8403C178.77 32.7543 178.829 32.6717 178.935 32.6109L182.909 30.3164C183.014 30.2556 183.157 30.2214 183.306 30.2214C183.455 30.2214 183.598 30.2556 183.704 30.3164L184.896 31.0048" stroke="black" stroke-width="1.37668" stroke-linecap="round" stroke-linejoin="round"/>
<path d="M184.499 33.5286L187.678 35.3642" stroke="black" stroke-width="1.37668" stroke-linecap="round" stroke-linejoin="round"/>
<path d="M191.255 37.4293L192.049 37.8882" stroke="black" stroke-width="1.37668" stroke-linecap="round" stroke-linejoin="round"/>
<path d="M180.127 31.0047L180.922 31.4636" stroke="black" stroke-width="1.37668" stroke-linecap="round" stroke-linejoin="round"/>
</g>
<path d="M92.7931 55.3688C96.1376 53.4379 101.56 53.4379 104.905 55.3688L200.889 110.786C204.234 112.717 204.234 115.847 200.889 117.778L181.208 129.141C177.863 131.072 172.441 131.072 169.096 129.141L73.1116 73.7246C69.7671 71.7936 69.7671 68.6629 73.1116 66.7319L92.7931 55.3688Z" fill="#E5E5E5" stroke="black" stroke-width="1.5"/>
<rect width="110.834" height="12.2372" transform="matrix(0.866025 0.5 0 1 73.1118 73.7245)" fill="#E5E5E5" stroke="black" stroke-width="1.5"/>
<rect width="22.7261" height="12.2372" transform="matrix(0.866025 -0.5 0 1 181.208 129.141)" fill="#E5E5E5" stroke="black" stroke-width="1.5"/>
<path d="M70.6033 70.2282C70.6033 71.5936 71.5619 72.8298 73.1117 73.7245V85.9617C71.5619 85.0669 70.6033 83.8308 70.6033 82.4654V70.2282Z" fill="#E5E5E5" stroke="black" stroke-width="1.5"/>
<path d="M169.096 129.141C172.441 131.072 177.864 131.072 181.208 129.141V141.379C177.864 143.309 172.441 143.309 169.096 141.379V129.141Z" fill="#E5E5E5" stroke="black" stroke-width="1.5"/>
<path d="M203.398 114.282C203.398 115.647 202.439 116.884 200.889 117.778V130.015C202.439 129.121 203.398 127.885 203.398 126.519V114.282Z" fill="#E5E5E5" stroke="black" stroke-width="1.5"/>
<path d="M95.3192 62.1866C97.953 60.666 102.223 60.666 104.857 62.1866L114.395 67.6934C117.029 69.214 117.029 71.6794 114.395 73.2001L104.857 78.7068C102.223 80.2274 97.953 80.2274 95.3192 78.7068L85.7813 73.2001C83.1474 71.6794 83.1474 69.214 85.7813 67.6934L95.3192 62.1866Z" fill="#E0EF67"/>
<path d="M95.7166 62.4161C98.1309 61.0222 102.045 61.0222 104.46 62.4161L113.998 67.9228C116.412 69.3167 116.412 71.5767 113.998 72.9706L104.46 78.4774C102.045 79.8713 98.1309 79.8713 95.7166 78.4774L86.1787 72.9706C83.7643 71.5767 83.7643 69.3167 86.1787 67.9228L95.7166 62.4161Z" stroke="black" stroke-opacity="0.1" stroke-width="0.917786"/>
<g clip-path="url(#clip2_13204_94695)">
<path opacity="0.2" d="M97.7036 66.3169L107.242 71.8236L101.678 75.0359L92.9347 69.988C92.7239 69.8663 92.6054 69.7013 92.6054 69.5291C92.6054 69.357 92.7239 69.192 92.9347 69.0703L97.7036 66.3169Z" fill="black"/>
<path d="M97.7036 66.3169L100.836 68.1255C100.91 68.1681 100.962 68.2217 100.986 68.2803C101.01 68.3389 101.005 68.4002 100.972 68.4573L98.4095 72.8954C98.3766 72.9525 98.3718 73.0138 98.3958 73.0724C98.4197 73.1311 98.4714 73.1847 98.5451 73.2273L101.678 75.0359" stroke="black" stroke-width="1.37668" stroke-linecap="round" stroke-linejoin="round"/>
<path d="M103.665 69.7586L107.242 71.8236" stroke="black" stroke-width="1.37668" stroke-linecap="round" stroke-linejoin="round"/>
</g>
<path d="M26.7931 46.3688C30.1376 44.4379 35.5602 44.4379 38.9047 46.3688L134.889 101.786C138.234 103.717 138.234 106.847 134.889 108.778L115.208 120.141C111.863 122.072 106.441 122.072 103.096 120.141L7.11165 64.7246C3.76711 62.7936 3.76711 59.6629 7.11165 57.7319L26.7931 46.3688Z" fill="#E5E5E5" stroke="black" stroke-width="1.5"/>
<path d="M29.3192 53.1867C31.953 51.6661 36.2233 51.6661 38.8571 53.1867L48.395 58.6934C51.0288 60.2141 51.0288 62.6795 48.395 64.2001L38.8571 69.7069C36.2233 71.2275 31.953 71.2275 29.3192 69.7069L19.7813 64.2001C17.1474 62.6795 17.1474 60.2141 19.7813 58.6934L29.3192 53.1867Z" fill="#ADCDC0"/>
<path d="M29.7166 53.4162C32.1309 52.0222 36.0453 52.0222 38.4597 53.4162L47.9976 58.9229C50.4119 60.3168 50.4119 62.5768 47.9976 63.9707L38.4597 69.4774C36.0453 70.8713 32.1309 70.8713 29.7166 69.4774L20.1787 63.9707C17.7643 62.5768 17.7643 60.3168 20.1787 58.9229L29.7166 53.4162Z" stroke="black" stroke-opacity="0.1" stroke-width="0.917786"/>
<g clip-path="url(#clip3_13204_94695)">
<path opacity="0.2" d="M32.7331 56.8434C32.7382 56.7807 32.7748 56.7202 32.8384 56.6693C32.902 56.6183 32.9898 56.5791 33.0912 56.5564C33.1925 56.5337 33.3032 56.5285 33.4096 56.5413C33.516 56.5542 33.6137 56.5846 33.6908 56.6289L42.4339 61.6767C42.5109 61.7211 42.5638 61.7775 42.5863 61.839C42.6088 61.9005 42.5999 61.9645 42.5607 62.0231C42.5214 62.0817 42.4535 62.1325 42.3652 62.1693C42.2769 62.2061 42.1721 62.2272 42.0633 62.2302L34.8831 62.365L31.9695 64.0472C31.9041 64.085 31.8236 64.1129 31.735 64.1284C31.6464 64.1439 31.5526 64.1465 31.4618 64.1361L28.8126 63.8301C28.7129 63.8186 28.6205 63.7917 28.5451 63.7523C28.4698 63.7128 28.4144 63.6624 28.3849 63.6062C28.3553 63.5501 28.3527 63.4903 28.3772 63.4334C28.4018 63.3764 28.4527 63.3244 28.5244 63.2828L32.4986 60.9884L32.7331 56.8434Z" fill="black"/>
<path d="M32.7331 56.8434C32.7382 56.7807 32.7748 56.7202 32.8384 56.6693C32.902 56.6183 32.9898 56.5791 33.0912 56.5564C33.1925 56.5337 33.3032 56.5285 33.4096 56.5413C33.516 56.5542 33.6137 56.5846 33.6908 56.6289L42.4339 61.6767C42.5109 61.7211 42.5638 61.7775 42.5863 61.839C42.6088 61.9005 42.5999 61.9645 42.5607 62.0231C42.5214 62.0817 42.4535 62.1325 42.3652 62.1693C42.2769 62.2061 42.1721 62.2272 42.0633 62.2302L34.8831 62.365L31.9695 64.0472C31.9041 64.085 31.8236 64.1129 31.735 64.1284C31.6464 64.1439 31.5526 64.1465 31.4618 64.1361L28.8126 63.8301C28.7129 63.8186 28.6205 63.7917 28.5451 63.7523C28.4698 63.7128 28.4144 63.6624 28.3849 63.6062C28.3553 63.5501 28.3527 63.4903 28.3772 63.4334C28.4018 63.3764 28.4527 63.3244 28.5244 63.2828L32.4986 60.9884L32.7331 56.8434Z" stroke="black" stroke-width="1.37668" stroke-linecap="round" stroke-linejoin="round"/>
</g>
<rect width="110.834" height="12.2372" transform="matrix(0.866025 0.5 0 1 7.11157 64.7245)" fill="#E5E5E5" stroke="black" stroke-width="1.5"/>
<rect width="22.7261" height="12.2372" transform="matrix(0.866025 -0.5 0 1 115.208 120.141)" fill="#E5E5E5" stroke="black" stroke-width="1.5"/>
<path d="M4.60327 61.2283C4.60327 62.5937 5.56185 63.8298 7.11167 64.7246V76.9618C5.56185 76.067 4.60327 74.8308 4.60327 73.4654V61.2283Z" fill="#E5E5E5" stroke="black" stroke-width="1.5"/>
<path d="M103.096 120.141C106.441 122.072 111.864 122.072 115.208 120.141V132.379C111.864 134.309 106.441 134.309 103.096 132.379V120.141Z" fill="#E5E5E5" stroke="black" stroke-width="1.5"/>
<path d="M137.398 105.282C137.398 106.647 136.439 107.884 134.889 108.778V121.015C136.439 120.121 137.398 118.885 137.398 117.519V105.282Z" fill="#E5E5E5" stroke="black" stroke-width="1.5"/>
</g>
<defs>
<clipPath id="clip0_13204_94695">
<rect width="14.5653" height="14.5653" fill="white" transform="matrix(0.866025 0.5 -0.866025 0.5 112.037 12.1343)"/>
</clipPath>
<clipPath id="clip1_13204_94695">
<rect width="14.6846" height="14.6846" fill="white" transform="matrix(0.866025 0.5 -0.866025 0.5 186.088 27.1044)"/>
</clipPath>
<clipPath id="clip2_13204_94695">
<rect width="14.6846" height="14.6846" fill="white" transform="matrix(0.866025 0.5 -0.866025 0.5 100.088 63.1044)"/>
</clipPath>
<clipPath id="clip3_13204_94695">
<rect width="14.6846" height="14.6846" fill="white" transform="matrix(0.866025 0.5 -0.866025 0.5 34.0881 54.1045)"/>
</clipPath>
</defs>
</svg>
