<svg width="8" height="8" viewBox="0 0 8 8" fill="none" xmlns="http://www.w3.org/2000/svg">
<path d="M3.159 7.80396C3.50767 7.80396 3.77127 7.67007 3.94979 7.40229L7.81172 1.5822C7.87587 1.48736 7.92329 1.39392 7.95397 1.30187C7.98466 1.20703 8 1.11637 8 1.0299C8 0.790013 7.91632 0.591966 7.74895 0.435759C7.58438 0.276764 7.38075 0.197266 7.13808 0.197266C6.97071 0.197266 6.82845 0.230738 6.7113 0.297684C6.59693 0.36184 6.48815 0.473416 6.38494 0.632412L3.14226 5.72446L1.51883 3.77886C1.3431 3.57523 1.12273 3.47342 0.857741 3.47342C0.609484 3.47342 0.404463 3.55291 0.242678 3.71191C0.0808926 3.87091 0 4.07035 0 4.31024C0 4.41902 0.0167364 4.52223 0.0502092 4.61986C0.0864714 4.7147 0.152022 4.81372 0.246862 4.91693L2.40167 7.45668C2.59972 7.6882 2.85216 7.80396 3.159 7.80396Z" fill="white"/>
</svg>
