<svg width="149" height="22" viewBox="0 0 149 22" fill="none" xmlns="http://www.w3.org/2000/svg">
<path d="M13.3062 8.54041L8.55579 13.2908" stroke="#19191A" stroke-width="1.34399" stroke-miterlimit="10"/>
<path d="M10.9897 1.00091L1.01605 10.9745L3.61725 13.5757L13.5909 3.60209L10.9897 1.00091Z" fill="white" stroke="#19191A" stroke-width="1.34399" stroke-miterlimit="10"/>
<path d="M18.4168 8.39062L11.0262 1L8.42498 3.60118L15.8156 10.9918L18.4168 8.39062Z" fill="white" stroke="#19191A" stroke-width="1.34399" stroke-miterlimit="10"/>
<path d="M18.3988 8.40936L8.42517 18.3829L11.0264 20.9841L21 11.0105L18.3988 8.40936Z" fill="white" stroke="black" stroke-width="1.34399" stroke-miterlimit="10"/>
<path d="M13.5748 18.3989L3.6012 8.42529L0.999995 11.0265L10.9736 21.0001L13.5748 18.3989Z" fill="white" stroke="black" stroke-width="1.34399" stroke-miterlimit="10"/>
<path d="M28.306 17V5.11246H30.0996V15.456H35.4861V17H28.306ZM41.1484 17.1799C40.3125 17.1799 39.5831 16.9884 38.9601 16.6053C38.3371 16.2222 37.8534 15.6863 37.509 14.9975C37.1646 14.3087 36.9924 13.5038 36.9924 12.5828C36.9924 11.658 37.1646 10.8492 37.509 10.1565C37.8534 9.46387 38.3371 8.92599 38.9601 8.5429C39.5831 8.15981 40.3125 7.96826 41.1484 7.96826C41.9842 7.96826 42.7136 8.15981 43.3367 8.5429C43.9597 8.92599 44.4434 9.46387 44.7878 10.1565C45.1322 10.8492 45.3044 11.658 45.3044 12.5828C45.3044 13.5038 45.1322 14.3087 44.7878 14.9975C44.4434 15.6863 43.9597 16.2222 43.3367 16.6053C42.7136 16.9884 41.9842 17.1799 41.1484 17.1799ZM41.1542 15.723C41.6959 15.723 42.1448 15.5798 42.5008 15.2935C42.8568 15.0071 43.12 14.626 43.2902 14.15C43.4644 13.674 43.5514 13.1497 43.5514 12.577C43.5514 12.0082 43.4644 11.4858 43.2902 11.0098C43.12 10.53 42.8568 10.1449 42.5008 9.85471C42.1448 9.56449 41.6959 9.41937 41.1542 9.41937C40.6086 9.41937 40.1558 9.56449 39.7959 9.85471C39.4399 10.1449 39.1749 10.53 39.0007 11.0098C38.8305 11.4858 38.7453 12.0082 38.7453 12.577C38.7453 13.1497 38.8305 13.674 39.0007 14.15C39.1749 14.626 39.4399 15.0071 39.7959 15.2935C40.1558 15.5798 40.6086 15.723 41.1542 15.723ZM50.9971 17.1799C50.1342 17.1799 49.3912 16.9845 48.7682 16.5937C48.149 16.199 47.6731 15.6553 47.3403 14.9626C47.0075 14.27 46.8411 13.4767 46.8411 12.5828C46.8411 11.6773 47.0114 10.8782 47.3519 10.1856C47.6924 9.48903 48.1723 8.94534 48.7914 8.55451C49.4105 8.16368 50.14 7.96826 50.9797 7.96826C51.6569 7.96826 52.2605 8.09402 52.7907 8.34555C53.3208 8.59321 53.7484 8.94147 54.0735 9.39035C54.4024 9.83923 54.5978 10.3636 54.6597 10.9634H52.9706C52.8777 10.5454 52.6649 10.1856 52.3321 9.88373C52.0032 9.5819 51.5621 9.43098 51.0087 9.43098C50.525 9.43098 50.1013 9.55868 49.7375 9.81408C49.3776 10.0656 49.0971 10.4255 48.8959 10.8937C48.6947 11.3581 48.594 11.9076 48.594 12.5422C48.594 13.1923 48.6927 13.7534 48.8901 14.2255C49.0874 14.6976 49.366 15.0632 49.7259 15.3225C50.0897 15.5818 50.5173 15.7114 51.0087 15.7114C51.3376 15.7114 51.6356 15.6514 51.9026 15.5315C52.1735 15.4076 52.3998 15.2316 52.5817 15.0033C52.7675 14.775 52.8971 14.5002 52.9706 14.179H54.6597C54.5978 14.7556 54.4101 15.2703 54.0967 15.723C53.7832 16.1758 53.3634 16.5318 52.8371 16.791C52.3147 17.0503 51.7014 17.1799 50.9971 17.1799ZM58.2512 11.7063V17H56.5157V5.11246H58.228V9.53546H58.3383C58.5472 9.05563 58.8665 8.67447 59.296 8.39198C59.7256 8.1095 60.2866 7.96826 60.9793 7.96826C61.5907 7.96826 62.1247 8.09402 62.5813 8.34555C63.0418 8.59708 63.3978 8.97243 63.6494 9.47161C63.9048 9.96693 64.0325 10.5861 64.0325 11.329V17H62.2969V11.538C62.2969 10.884 62.1286 10.3771 61.7919 10.0172C61.4553 9.65349 60.9871 9.47161 60.3873 9.47161C59.9771 9.47161 59.6095 9.55868 59.2844 9.73281C58.9632 9.90695 58.7098 10.1623 58.524 10.499C58.3422 10.8318 58.2512 11.2342 58.2512 11.7063Z" fill="#19191A"/>
<rect x="70" y="1" width="79" height="20" rx="4" fill="#E7E7E7"/>
<path d="M74.3596 5.55825H78.1517L78.8055 14.1559V15.8231H79.1978V14.1559L79.8516 5.55825H83.6438V17H81.6823V9.35037L81.8785 6.73511H81.4862L80.6362 17H77.3998L76.5172 6.73511H76.1249L76.321 9.35037V17H74.3596V5.55825ZM93.2271 13.0444C93.2271 13.72 93.1127 14.3194 92.8839 14.8424C92.655 15.3546 92.3445 15.7904 91.9522 16.15C91.5599 16.4987 91.1077 16.7657 90.5955 16.951C90.0943 17.1362 89.5658 17.2288 89.01 17.2288C88.4543 17.2288 87.9203 17.1362 87.4082 16.951C86.9069 16.7657 86.4601 16.4987 86.0679 16.15C85.6756 15.7904 85.365 15.3546 85.1362 14.8424C84.9073 14.3194 84.7929 13.72 84.7929 13.0444V12.8483C84.7929 12.1836 84.9073 11.5951 85.1362 11.083C85.365 10.5599 85.6756 10.1186 86.0679 9.759C86.4601 9.39941 86.9069 9.12698 87.4082 8.94174C87.9203 8.75649 88.4543 8.66386 89.01 8.66386C89.5658 8.66386 90.0943 8.75649 90.5955 8.94174C91.1077 9.12698 91.5599 9.39941 91.9522 9.759C92.3445 10.1186 92.655 10.5599 92.8839 11.083C93.1127 11.5951 93.2271 12.1836 93.2271 12.8483V13.0444ZM89.01 15.2674C89.3042 15.2674 89.5821 15.2184 89.8436 15.1203C90.1052 15.0222 90.334 14.8806 90.5301 14.6953C90.7263 14.5101 90.8788 14.2867 90.9878 14.0251C91.1077 13.7527 91.1676 13.4476 91.1676 13.1098V12.7829C91.1676 12.4451 91.1077 12.1454 90.9878 11.8839C90.8788 11.6115 90.7263 11.3826 90.5301 11.1974C90.334 11.0121 90.1052 10.8705 89.8436 10.7724C89.5821 10.6743 89.3042 10.6253 89.01 10.6253C88.7158 10.6253 88.4379 10.6743 88.1764 10.7724C87.9149 10.8705 87.686 11.0121 87.4899 11.1974C87.2938 11.3826 87.1358 11.6115 87.0159 11.8839C86.9069 12.1454 86.8524 12.4451 86.8524 12.7829V13.1098C86.8524 13.4476 86.9069 13.7527 87.0159 14.0251C87.1358 14.2867 87.2938 14.5101 87.4899 14.6953C87.686 14.8806 87.9149 15.0222 88.1764 15.1203C88.4379 15.2184 88.7158 15.2674 89.01 15.2674ZM101.111 15.8231H100.816C100.729 16.0084 100.62 16.1882 100.489 16.3625C100.37 16.526 100.206 16.6731 99.9991 16.8039C99.8029 16.9346 99.5632 17.0381 99.2799 17.1144C99.0075 17.1907 98.6751 17.2288 98.2828 17.2288C97.7816 17.2288 97.313 17.1417 96.8771 16.9673C96.4521 16.7821 96.0762 16.5151 95.7493 16.1664C95.4333 15.8068 95.1827 15.3709 94.9974 14.8588C94.8231 14.3466 94.7359 13.7582 94.7359 13.0935V12.7992C94.7359 12.1454 94.8285 11.5624 95.0138 11.0503C95.2099 10.5381 95.4714 10.1077 95.7983 9.759C96.1361 9.39941 96.523 9.12698 96.9588 8.94174C97.4056 8.75649 97.8742 8.66386 98.3645 8.66386C99.0184 8.66386 99.536 8.78918 99.9174 9.03981C100.299 9.27954 100.598 9.62279 100.816 10.0696H101.111V5.55825H103.17V17H101.111V15.8231ZM98.953 15.2674C99.5959 15.2674 100.114 15.0658 100.506 14.6626C100.909 14.2485 101.111 13.7091 101.111 13.0444V12.8483C101.111 12.1836 100.909 11.6496 100.506 11.2464C100.114 10.8323 99.5959 10.6253 98.953 10.6253C98.3101 10.6253 97.787 10.8269 97.3838 11.2301C96.9915 11.6224 96.7954 12.1618 96.7954 12.8483V13.0444C96.7954 13.7309 96.9915 14.2758 97.3838 14.679C97.787 15.0712 98.3101 15.2674 98.953 15.2674ZM110.792 8.8927H112.852V17H110.792V15.8231H110.498C110.138 16.7603 109.365 17.2288 108.177 17.2288C107.774 17.2288 107.398 17.1635 107.049 17.0327C106.7 16.9019 106.395 16.7003 106.134 16.4279C105.872 16.1555 105.665 15.8177 105.512 15.4145C105.371 15.0004 105.3 14.5155 105.3 13.9598V8.8927H107.359V13.5348C107.359 14.1123 107.496 14.5645 107.768 14.8914C108.041 15.2075 108.449 15.3655 108.994 15.3655C109.615 15.3655 110.067 15.1693 110.351 14.777C110.645 14.3738 110.792 13.829 110.792 13.1425V8.8927ZM115.259 15.0386H118.103V7.51969H115.357V5.55825H120.163V15.0386H122.811V17H115.259V15.0386ZM130.809 8.8927H132.868V17H130.809V15.8231H130.514C130.155 16.7603 129.381 17.2288 128.193 17.2288C127.79 17.2288 127.414 17.1635 127.066 17.0327C126.717 16.9019 126.412 16.7003 126.15 16.4279C125.889 16.1555 125.682 15.8177 125.529 15.4145C125.387 15.0004 125.317 14.5155 125.317 13.9598V8.8927H127.376V13.5348C127.376 14.1123 127.512 14.5645 127.785 14.8914C128.057 15.2075 128.466 15.3655 129.011 15.3655C129.632 15.3655 130.084 15.1693 130.367 14.777C130.662 14.3738 130.809 13.829 130.809 13.1425V8.8927ZM137.908 11.1811C137.908 11.4426 138.044 11.6333 138.316 11.7531C138.589 11.8621 139.084 11.9547 139.804 12.031C140.632 12.1182 141.307 12.3688 141.83 12.7829C142.353 13.1861 142.615 13.7527 142.615 14.4828V14.5809C142.615 15.3873 142.321 16.0302 141.732 16.5096C141.144 16.9891 140.316 17.2288 139.248 17.2288C138.616 17.2288 138.076 17.1471 137.63 16.9837C137.183 16.8202 136.812 16.6186 136.518 16.3789C136.224 16.1282 135.995 15.8558 135.832 15.5616C135.679 15.2565 135.576 14.9623 135.521 14.679L137.417 14.0578C137.504 14.4065 137.684 14.7116 137.957 14.9732C138.24 15.2347 138.67 15.3655 139.248 15.3655C139.76 15.3655 140.109 15.2892 140.294 15.1366C140.49 14.9732 140.588 14.7988 140.588 14.6136C140.588 14.5046 140.561 14.4065 140.506 14.3194C140.463 14.2213 140.376 14.1341 140.245 14.0578C140.114 13.9707 139.934 13.8998 139.706 13.8453C139.488 13.7909 139.21 13.7473 138.872 13.7146C137.957 13.6383 137.226 13.404 136.682 13.0117C136.148 12.6085 135.881 12.0201 135.881 11.2464V11.1484C135.881 10.7452 135.968 10.391 136.142 10.0859C136.317 9.7808 136.545 9.52472 136.829 9.31768C137.112 9.09974 137.439 8.93629 137.809 8.82732C138.18 8.71835 138.561 8.66386 138.954 8.66386C139.466 8.66386 139.907 8.72925 140.278 8.86001C140.659 8.97988 140.98 9.14333 141.242 9.35037C141.504 9.54651 141.716 9.7699 141.879 10.0205C142.043 10.2603 142.168 10.4945 142.255 10.7234L140.392 11.4753C140.294 11.1811 140.125 10.9522 139.885 10.7888C139.646 10.6144 139.335 10.5272 138.954 10.5272C138.605 10.5272 138.343 10.5926 138.169 10.7234C137.995 10.8432 137.908 10.9958 137.908 11.1811Z" fill="black"/>
</svg>
