<svg width="20" height="20" viewBox="0 0 20 20" fill="none" xmlns="http://www.w3.org/2000/svg">
<g clip-path="url(#clip0_12764_16)">
<path opacity="0.2" d="M6.875 16.25V7.5H3.125C2.95924 7.5 2.80027 7.56585 2.68306 7.68306C2.56585 7.80027 2.5 7.95924 2.5 8.125V16.25H6.875Z" fill="black"/>
<path opacity="0.2" d="M13.125 16.25V10.625H16.875C17.0408 10.625 17.1997 10.6908 17.3169 10.8081C17.4342 10.9253 17.5 11.0842 17.5 11.25V16.25H13.125Z" fill="black"/>
<path d="M2.5 16.25V8.125C2.5 7.95924 2.56585 7.80027 2.68306 7.68306C2.80027 7.56585 2.95924 7.5 3.125 7.5H6.875" stroke="black" stroke-width="1.5" stroke-linecap="round" stroke-linejoin="round"/>
<path d="M6.875 16.25V4.375C6.875 4.20924 6.94085 4.05027 7.05806 3.93306C7.17527 3.81585 7.33424 3.75 7.5 3.75H12.5C12.6658 3.75 12.8247 3.81585 12.9419 3.93306C13.0592 4.05027 13.125 4.20924 13.125 4.375V16.25" stroke="black" stroke-width="1.5" stroke-linecap="round" stroke-linejoin="round"/>
<path d="M17.5 16.25V11.25C17.5 11.0842 17.4342 10.9253 17.3169 10.8081C17.1997 10.6908 17.0408 10.625 16.875 10.625H13.125" stroke="black" stroke-width="1.5" stroke-linecap="round" stroke-linejoin="round"/>
<path d="M9.375 7.8125L10.3125 7.5V10.625" stroke="black" stroke-width="1.5" stroke-linecap="round" stroke-linejoin="round"/>
<path d="M1.25 16.25H18.75" stroke="black" stroke-width="1.5" stroke-linecap="round" stroke-linejoin="round"/>
</g>
<defs>
<clipPath id="clip0_12764_16">
<rect width="20" height="20" fill="white"/>
</clipPath>
</defs>
</svg>
