<svg width="21" height="20" viewBox="0 0 21 20" fill="none" xmlns="http://www.w3.org/2000/svg">
<g clip-path="url(#clip0_12764_27)">
<path opacity="0.2" d="M10.9 2.5C9.38275 2.49991 7.90116 2.95999 6.65085 3.81949C5.40055 4.67899 4.44032 5.8975 3.89697 7.31411C3.35362 8.73072 3.25269 10.2788 3.60752 11.754C3.96234 13.2291 4.75624 14.562 5.88437 15.5766C6.35489 14.6507 7.07255 13.8732 7.95783 13.3302C8.8431 12.7871 9.86144 12.4998 10.9 12.5C10.2819 12.5 9.67774 12.3167 9.16383 11.9733C8.64993 11.63 8.24939 11.1419 8.01287 10.5709C7.77634 9.99987 7.71446 9.37153 7.83504 8.76534C7.95562 8.15915 8.25324 7.60233 8.69028 7.16529C9.12732 6.72825 9.68414 6.43062 10.2903 6.31005C10.8965 6.18947 11.5249 6.25135 12.0959 6.48788C12.6669 6.7244 13.155 7.12494 13.4983 7.63884C13.8417 8.15275 14.025 8.75693 14.025 9.375C14.025 10.2038 13.6958 10.9987 13.1097 11.5847C12.5236 12.1708 11.7288 12.5 10.9 12.5C11.9385 12.4997 12.9567 12.787 13.842 13.3298C14.7273 13.8727 15.445 14.6501 15.9156 15.5758C17.0435 14.5612 17.8371 13.2284 18.1918 11.7533C18.5464 10.2783 18.4454 8.7304 17.9021 7.31397C17.3588 5.89753 16.3987 4.67916 15.1486 3.81969C13.8984 2.96023 12.4171 2.50008 10.9 2.5Z" fill="black"/>
<path d="M5.88437 15.5758C6.35461 14.6495 7.07215 13.8716 7.95745 13.3282C8.84275 12.7848 9.86123 12.4972 10.9 12.4972C11.9388 12.4972 12.9572 12.7848 13.8425 13.3282C14.7278 13.8716 15.4454 14.6495 15.9156 15.5758" stroke="black" stroke-width="1.5" stroke-linecap="round" stroke-linejoin="round"/>
<path d="M10.9 17.5C15.0421 17.5 18.4 14.1421 18.4 10C18.4 5.85786 15.0421 2.5 10.9 2.5C6.75786 2.5 3.39999 5.85786 3.39999 10C3.39999 14.1421 6.75786 17.5 10.9 17.5Z" stroke="black" stroke-width="1.5" stroke-linecap="round" stroke-linejoin="round"/>
<path d="M10.9 12.5C12.6259 12.5 14.025 11.1009 14.025 9.375C14.025 7.64911 12.6259 6.25 10.9 6.25C9.1741 6.25 7.77499 7.64911 7.77499 9.375C7.77499 11.1009 9.1741 12.5 10.9 12.5Z" stroke="black" stroke-width="1.5" stroke-linecap="round" stroke-linejoin="round"/>
</g>
<defs>
<clipPath id="clip0_12764_27">
<rect width="20" height="20" fill="white" transform="translate(0.899994)"/>
</clipPath>
</defs>
</svg>
