<svg xmlns="http://www.w3.org/2000/svg" xmlns:xlink="http://www.w3.org/1999/xlink" version="1.1" width="537.6307500000001" height="532.0535625000001" viewBox="318.56118749999996 304.0149374999999 537.6307500000001 532.0535625000001" xml:space="preserve">
<desc>Created with Fabric.js 5.2.4</desc>
<defs>
</defs>
<g transform="matrix(1 0 0 1 540 540)" id="c8373612-4211-4b96-b993-8ab557d37f5a">
</g>
<g transform="matrix(1 0 0 1 540 540)" id="d9e7d17c-469d-44a5-8c48-68ed0b185778">
<rect style="stroke: none; stroke-width: 1; stroke-dasharray: none; stroke-linecap: butt; stroke-dashoffset: 0; stroke-linejoin: miter; stroke-miterlimit: 4; fill: rgb(255,255,255); fill-rule: nonzero; opacity: 1; visibility: hidden;" vector-effect="non-scaling-stroke" x="-540" y="-540" rx="0" ry="0" width="1080" height="1080"></rect>
</g>
<g transform="matrix(1 0 0 1 583.62 564.43)">
<circle style="stroke: none; stroke-width: 1; stroke-dasharray: none; stroke-linecap: butt; stroke-dashoffset: 0; stroke-linejoin: miter; stroke-miterlimit: 4; fill: rgb(255,255,255); fill-rule: nonzero; opacity: 1;" vector-effect="non-scaling-stroke" cx="0" cy="0" r="256"></circle>
</g>
<g transform="matrix(1 0 0 1 483.67 716.88)">
<path style="stroke: none; stroke-width: 1; stroke-dasharray: none; stroke-linecap: butt; stroke-dashoffset: 0; stroke-linejoin: miter; stroke-miterlimit: 4; fill: none; fill-rule: nonzero; opacity: 1;" vector-effect="non-scaling-stroke" transform=" translate(-156.05, -408.45)" d="M 157.1 409.2 L 160.79999999999998 409.9 C 157.89999999999998 409 154.49999999999997 408 151.29999999999998 407 L 157.1 409.2 z" stroke-linecap="round"></path>
</g>
<g transform="matrix(1 0 0 1 697.62 530.23)">
<polygon style="stroke: none; stroke-width: 1; stroke-dasharray: none; stroke-linecap: butt; stroke-dashoffset: 0; stroke-linejoin: miter; stroke-miterlimit: 4; fill: rgb(61,129,48); fill-rule: nonzero; opacity: 1;" vector-effect="non-scaling-stroke" points="0,0 0,0 0,0 "></polygon>
</g>
<g transform="matrix(1 0 0 1 700.22 576.53)">
<path style="stroke: none; stroke-width: 1; stroke-dasharray: none; stroke-linecap: butt; stroke-dashoffset: 0; stroke-linejoin: miter; stroke-miterlimit: 4; fill: rgb(61,129,48); fill-rule: nonzero; opacity: 1;" vector-effect="non-scaling-stroke" transform=" translate(-372.6, -268.1)" d="M 372.6 268.1 L 372.6 268.1 L 372.6 268.1 L 372.6 268.1 z" stroke-linecap="round"></path>
</g>
<g transform="matrix(1 0 0 1 681.07 647.78)">
<polygon style="stroke: none; stroke-width: 1; stroke-dasharray: none; stroke-linecap: butt; stroke-dashoffset: 0; stroke-linejoin: miter; stroke-miterlimit: 4; fill: rgb(61,129,48); fill-rule: nonzero; opacity: 1;" vector-effect="non-scaling-stroke" points="0.05,0.05 0.05,0.05 -0.05,-0.05 "></polygon>
</g>
<g transform="matrix(1 0 0 1 566.47 598.18)">
<path style="stroke: none; stroke-width: 1; stroke-dasharray: none; stroke-linecap: butt; stroke-dashoffset: 0; stroke-linejoin: miter; stroke-miterlimit: 4; fill: rgb(61,129,48); fill-rule: nonzero; opacity: 1;" vector-effect="non-scaling-stroke" transform=" translate(-238.85, -289.75)" d="M 152.1 203 L 140.6 225.4 L 128.7 248.9 L 120.29999999999998 270.9 L 114.69999999999999 294.29999999999995 L 111.19999999999999 319.9 L 109.1 342 L 106.69999999999999 356.5 L 109.1 367.8 L 113.19999999999999 377.5 L 120.79999999999998 390.9 L 138.39999999999998 401.9 L 151.39999999999998 407 C 154.59999999999997 408 157.99999999999997 409 160.89999999999998 409.9 L 176.29999999999998 412.7 L 198.29999999999998 413.7 L 216.49999999999997 413.7 C 218.59999999999997 413.7 236.99999999999997 412.7 237.09999999999997 412.59999999999997 L 237.09999999999997 412.59999999999997 L 237.09999999999997 412.59999999999997 L 260.49999999999994 412.99999999999994 L 283.09999999999997 410.19999999999993 L 292.9 406.0999999999999 L 299.59999999999997 398.0999999999999 L 299.9 387.4999999999999 C 299.5 386.5999999999999 298.2 383.1999999999999 297.79999999999995 381.89999999999986 C 297.49999999999994 380.9999999999999 292.99999999999994 375.6999999999999 288.9 371.09999999999985 L 288.79999999999995 370.99999999999983 C 286.99999999999994 368.3999999999998 284.09999999999997 363.8999999999998 284.09999999999997 362.3999999999998 C 284.09999999999997 360.8999999999998 285.9 356.49999999999983 286.29999999999995 355.6999999999998 L 286.49999999999994 355.29999999999984 L 295.8999999999999 352.59999999999985 L 302.0999999999999 357.09999999999985 L 307.69999999999993 353.99999999999983 L 313.99999999999994 347.6999999999998 L 324.99999999999994 339.5999999999998 L 334.99999999999994 333.8999999999998 L 342.8999999999999 332.3999999999998 L 353.2999999999999 339.49999999999983 L 352.5999999999999 338.6999999999998 L 356.8999999999999 334.8999999999998 L 360.8999999999999 328.2999999999998 L 360.8999999999999 321.3999999999998 L 360.0999999999999 319.3999999999998 L 354.9999999999999 323.49999999999983 L 345.89999999999986 326.09999999999985 L 345.6999999999999 326.09999999999985 L 331.6999999999999 325.79999999999984 L 311.39999999999986 327.89999999999986 L 304.9999999999999 328.59999999999985 L 300.0999999999999 327.89999999999986 L 286.9999999999999 326.09999999999985 L 272.1999999999999 323.29999999999984 L 248.29999999999987 319.39999999999986 L 248.19999999999987 319.39999999999986 L 225.29999999999987 309.89999999999986 L 205.19999999999987 298.29999999999984 L 192.89999999999986 289.99999999999983 L 191.69999999999987 284.09999999999985 L 193.29999999999987 278.59999999999985 L 198.19999999999987 274.99999999999983 L 209.59999999999988 277.59999999999985 L 234.4999999999999 285.29999999999984 C 246.69999999999987 287.79999999999984 265.2999999999999 291.49999999999983 266.4999999999999 291.59999999999985 L 266.4999999999999 291.59999999999985 C 267.0999999999999 291.59999999999985 269.4999999999999 291.99999999999983 275.4999999999999 292.99999999999983 C 281.89999999999986 293.99999999999983 290.6999999999999 295.49999999999983 292.4999999999999 295.49999999999983 C 295.5999999999999 295.49999999999983 319.4999999999999 296.79999999999984 320.89999999999986 296.8999999999998 C 322.1999999999999 296.8999999999998 341.59999999999985 296.49999999999983 343.6999999999999 296.49999999999983 C 345.09999999999985 296.49999999999983 352.59999999999985 293.99999999999983 357.09999999999985 292.3999999999998 L 363.89999999999986 284.2999999999998 L 370.39999999999986 272.9999999999998 C 370.79999999999984 269.69999999999976 370.39999999999986 266.39999999999975 369.1999999999999 263.2999999999998 C 367.59999999999985 259.0999999999998 364.59999999999985 255.49999999999977 360.7999999999999 253.0999999999998 C 358.7999999999999 256.8999999999998 356.1999999999999 259.2999999999998 353.1999999999999 260.3999999999998 C 352.09999999999985 260.7999999999998 350.7999999999999 260.99999999999983 349.59999999999985 260.99999999999983 C 347.79999999999984 260.99999999999983 345.99999999999983 260.59999999999985 344.49999999999983 259.79999999999984 L 345.49999999999983 257.99999999999983 C 347.6999999999998 259.09999999999985 350.1999999999998 259.29999999999984 352.59999999999985 258.49999999999983 C 355.29999999999984 257.49999999999983 357.59999999999985 255.09999999999982 359.39999999999986 251.39999999999984 C 357.1999999999999 252.19999999999985 354.79999999999984 252.69999999999985 352.39999999999986 252.69999999999985 C 350.89999999999986 252.69999999999985 349.39999999999986 252.59999999999985 347.89999999999986 252.19999999999985 L 348.09999999999985 251.19999999999985 L 348.29999999999984 250.19999999999985 C 348.39999999999986 250.19999999999985 356.09999999999985 252.09999999999985 361.89999999999986 247.59999999999985 C 365.9999999999999 244.49999999999986 368.29999999999984 238.89999999999986 368.6999999999999 231.19999999999985 L 361.9999999999999 239.09999999999985 L 353.89999999999986 242.79999999999984 C 350.29999999999984 243.69999999999985 338.29999999999984 246.69999999999985 337.1999999999999 246.69999999999985 C 336.7999999999999 246.69999999999985 335.1999999999999 246.49999999999986 331.2999999999999 245.79999999999984 C 326.3999999999999 244.99999999999983 319.0999999999999 243.89999999999984 317.1999999999999 243.89999999999984 C 313.7999999999999 243.89999999999984 308.9999999999999 240.19999999999985 308.4999999999999 239.79999999999984 L 307.89999999999986 239.39999999999984 L 311.6999999999999 228.29999999999984 L 322.1999999999999 216.39999999999984 L 333.2999999999999 208.49999999999983 L 347.0999999999999 208.49999999999983 L 360.0999999999999 209.89999999999984 L 365.69999999999993 216.29999999999984 L 368.3999999999999 220.29999999999984 L 368.3999999999999 209.49999999999983 L 357.5999999999999 205.59999999999982 C 356.3999999999999 205.39999999999984 345.69999999999993 203.89999999999984 343.0999999999999 203.89999999999984 C 340.5999999999999 203.89999999999984 330.9999999999999 205.39999999999984 329.3999999999999 205.59999999999982 L 315.49999999999994 214.59999999999982 L 314.3999999999999 212.89999999999984 L 328.5999999999999 203.69999999999985 L 328.7999999999999 203.69999999999985 C 329.2999999999999 203.59999999999985 340.0999999999999 201.89999999999984 342.9999999999999 201.89999999999984 C 345.7999999999999 201.89999999999984 357.39999999999986 203.59999999999982 357.89999999999986 203.69999999999985 L 358.09999999999985 203.79999999999984 L 369.79999999999984 208.09999999999985 L 370.89999999999986 208.69999999999985 L 370.9999999999999 207.89999999999984 L 365.4999999999999 203.09999999999982 L 355.5999999999999 198.2999999999998 L 343.5999999999999 197.2999999999998 L 329.7999999999999 199.69999999999982 L 324.2999999999999 202.09999999999982 L 323.4999999999999 200.19999999999982 L 329.2999999999999 197.69999999999982 L 343.4999999999999 195.19999999999982 L 356.0999999999999 196.2999999999998 L 356.5999999999999 196.59999999999982 L 352.7999999999999 190.69999999999982 L 342.0999999999999 181.2999999999998 L 342.19999999999993 181.19999999999982 L 300.5999999999999 182.3999999999998 C 300.5999999999999 182.3999999999998 295.19999999999993 183.0999999999998 288.9999999999999 183.8999999999998 L 294.89999999999986 192.3999999999998 L 297.89999999999986 197.69999999999982 L 296.39999999999986 202.99999999999983 L 294.39999999999986 202.39999999999984 L 295.6999999999999 197.89999999999984 L 293.09999999999985 193.39999999999984 L 286.79999999999984 184.29999999999984 L 287.1999999999998 183.99999999999983 C 279.3999999999998 184.99999999999983 271.0999999999998 185.99999999999983 270.5999999999998 185.99999999999983 C 269.6999999999998 185.99999999999983 236.29999999999978 188.49999999999983 234.8999999999998 188.49999999999983 C 232.0999999999998 188.29999999999984 229.2999999999998 187.99999999999983 226.5999999999998 187.39999999999984 C 226.0999999999998 187.09999999999982 203.79999999999978 178.99999999999983 202.9999999999998 178.49999999999983 C 202.1999999999998 177.99999999999983 194.3999999999998 170.49999999999983 194.3999999999998 170.49999999999983 L 179.19999999999982 165.79999999999984 L 165.8999999999998 182.19999999999985 L 152.1 203 z M 314.4 248.9 C 316.4 249.8 318.2 250.9 320.09999999999997 252 L 331.49999999999994 253.3 L 337.99999999999994 251.9 L 338.3999999999999 253.9 L 331.5999999999999 255.3 L 323.69999999999993 254.4 C 327.0999999999999 256.9 330.19999999999993 259.7 332.99999999999994 262.9 C 334.99999999999994 265.2 336.79999999999995 267.7 338.29999999999995 270.29999999999995 L 336.49999999999994 271.29999999999995 C 334.69999999999993 268.29999999999995 332.59999999999997 265.4 330.09999999999997 262.9 C 326.79999999999995 259.5 323.09999999999997 256.4 319.09999999999997 253.89999999999998 L 319.09999999999997 253.89999999999998 L 313.29999999999995 250.59999999999997 L 314.4 248.9 z M 200.1 211.5 L 209.2 202.8 L 217.1 196.3 L 228.4 194.10000000000002 L 240.3 193.70000000000002 L 253 193.70000000000002 L 263.5 194.10000000000002 L 284.8 194.50000000000003 L 291.5 198.60000000000002 L 299.7 206.10000000000002 L 304.4 211.90000000000003 L 306.59999999999997 223.70000000000005 L 304.59999999999997 224.10000000000005 L 302.49999999999994 212.80000000000004 L 298.19999999999993 207.40000000000003 L 290.29999999999995 200.20000000000005 L 284.29999999999995 196.50000000000006 L 267.59999999999997 196.20000000000005 L 274.9 200.20000000000005 C 278.79999999999995 202.20000000000005 285.5 205.80000000000004 286.2 207.30000000000004 C 286.7 208.10000000000005 292 213.30000000000004 296.9 217.90000000000003 L 297 218.00000000000003 L 304.5 227.70000000000002 L 305.6 235.70000000000002 L 303.6 236.00000000000003 L 302.6 228.60000000000002 L 295.5 219.40000000000003 C 293 217.10000000000002 285.2 209.70000000000005 284.5 208.30000000000004 C 283.9 207.50000000000003 278.7 204.50000000000003 274.1 202.10000000000005 L 263.40000000000003 196.20000000000005 L 253.10000000000002 195.90000000000003 L 240.50000000000003 195.90000000000003 L 228.70000000000002 196.20000000000005 L 218.20000000000002 198.20000000000005 L 210.70000000000002 204.30000000000004 L 202.20000000000002 212.50000000000003 L 201.3 217.90000000000003 L 203.10000000000002 219.50000000000003 L 207.60000000000002 217.10000000000002 L 215.00000000000003 207.90000000000003 L 228.40000000000003 202.80000000000004 L 245.80000000000004 201.00000000000003 L 260.50000000000006 202.40000000000003 L 279.6000000000001 212.30000000000004 L 287.50000000000006 217.00000000000003 L 295.1000000000001 227.10000000000002 L 298.6000000000001 238.10000000000002 L 303.7000000000001 241.40000000000003 L 303.7000000000001 245.90000000000003 L 299.0000000000001 250.20000000000005 L 290.60000000000014 253.70000000000005 L 287.0000000000001 256.70000000000005 L 283.2000000000001 262.90000000000003 L 281.3000000000001 266.00000000000006 L 281.10000000000014 266.1000000000001 C 278.60000000000014 267.4000000000001 274.20000000000016 269.7000000000001 273.0000000000001 269.7000000000001 C 272.10000000000014 269.9000000000001 266.5000000000001 272.4000000000001 261.5000000000001 274.9000000000001 L 261 275 C 260.6 275.1 251.8 277.8 249.6 278.2 L 249.29999999999998 276.2 C 251.2 275.9 259.5 273.4 260.29999999999995 273.09999999999997 C 265.29999999999995 270.7 271.49999999999994 267.79999999999995 272.59999999999997 267.79999999999995 C 274.99999999999994 266.9 277.29999999999995 265.79999999999995 279.59999999999997 264.49999999999994 L 280.49999999999994 262.99999999999994 L 285.09999999999997 255.49999999999994 L 286.2 254.59999999999994 C 283 254.29999999999993 278.8 253.79999999999993 277.7 253.19999999999993 C 277.2 252.99999999999994 274.2 252.59999999999994 258.5 252.59999999999994 C 254.6 252.59999999999994 245.4 250.49999999999994 244.1 250.09999999999994 C 243.1 249.79999999999993 233.7 246.99999999999994 233.6 246.99999999999994 L 233.4 246.89999999999995 L 233.20000000000002 246.69999999999996 C 233.10000000000002 246.59999999999997 224.4 238.29999999999995 218.00000000000003 234.59999999999997 L 219.00000000000003 232.79999999999995 C 225.20000000000002 236.39999999999995 233.10000000000002 243.79999999999995 234.50000000000003 245.09999999999997 C 236.00000000000003 245.49999999999997 243.80000000000004 247.89999999999998 244.80000000000004 248.19999999999996 C 245.90000000000003 248.59999999999997 254.90000000000003 250.59999999999997 258.50000000000006 250.59999999999997 C 277.40000000000003 250.59999999999997 278.20000000000005 251.09999999999997 278.70000000000005 251.49999999999997 C 279.40000000000003 251.89999999999998 283.90000000000003 252.39999999999998 287.70000000000005 252.69999999999996 L 287.6 253.39999999999995 L 289.1 252.09999999999994 L 297.5 248.59999999999994 L 301.2 245.19999999999993 L 301.2 242.69999999999993 L 298.59999999999997 240.99999999999994 L 298.7 241.29999999999995 L 290 244.49999999999994 L 278 245.89999999999995 C 277.4 245.89999999999995 274.8 245.99999999999994 271.9 245.99999999999994 C 268.5 245.99999999999994 264.79999999999995 245.89999999999995 263.7 245.49999999999994 C 262.09999999999997 244.99999999999994 252 242.79999999999995 247 241.69999999999993 L 246.9 241.69999999999993 L 246.8 241.59999999999994 C 240.5 238.19999999999993 232.70000000000002 233.89999999999995 232.10000000000002 232.79999999999993 C 231.60000000000002 232.19999999999993 227.70000000000002 230.19999999999993 224.40000000000003 228.59999999999994 L 224.30000000000004 228.59999999999994 L 213.20000000000005 222.09999999999994 L 211.70000000000005 222.39999999999995 L 211.50000000000006 221.09999999999994 L 208.00000000000006 219.09999999999994 L 202.60000000000005 221.99999999999994 L 198.80000000000004 218.69999999999993 L 200.1 211.5 z M 204.7 259.4 L 205.2 261.4 L 198.39999999999998 263 L 194.99999999999997 263.8 L 194.79999999999998 263 L 194.49999999999997 261.8 L 204.7 259.4 z M 209 268.9 L 208.5 270.9 C 206.2 270.4 203.8 270.5 201.5 270.9 C 197.7 271.59999999999997 192.1 273.79999999999995 186.7 280 L 185.2 278.7 C 196.3 265.7 208.5 268.7 209 268.9 L 209 268.9 z" stroke-linecap="round"></path>
</g>
<g transform="matrix(1 0 0 1 572.57 519.98)">
<path style="stroke: none; stroke-width: 1; stroke-dasharray: none; stroke-linecap: butt; stroke-dashoffset: 0; stroke-linejoin: miter; stroke-miterlimit: 4; fill: rgb(61,129,48); fill-rule: nonzero; opacity: 1;" vector-effect="non-scaling-stroke" transform=" translate(-244.95, -211.55)" d="M 222.7 218.3 C 223.29999999999998 218.20000000000002 237.5 216.5 239.29999999999998 216.5 C 239.99999999999997 216.5 241.99999999999997 216.7 244.6 216.9 C 248.1 217.20000000000002 254 217.70000000000002 254.9 217.6 C 256.3 217.2 270.3 216 271.9 215.79999999999998 L 280.2 215.2 L 278.5 214.2 L 259.8 204.5 L 245.70000000000002 203.1 L 228.70000000000002 204.79999999999998 L 216.10000000000002 209.6 L 209.70000000000002 217.6 L 213.8 220 L 222.7 218.3 z" stroke-linecap="round"></path>
</g>
<g transform="matrix(1 0 0 1 584.32 538.62)">
<path style="stroke: none; stroke-width: 1; stroke-dasharray: none; stroke-linecap: butt; stroke-dashoffset: 0; stroke-linejoin: miter; stroke-miterlimit: 4; fill: rgb(61,129,48); fill-rule: nonzero; opacity: 1;" vector-effect="non-scaling-stroke" transform=" translate(-256.7, -230.19)" d="M 272 217.9 C 265.8 218.5 256.3 219.4 255.3 219.6 C 254.4 219.79999999999998 251.20000000000002 219.6 244.4 219 C 242.1 218.8 239.9 218.6 239.3 218.6 C 237.9 218.6 227.10000000000002 219.9 223 220.29999999999998 L 216.4 221.49999999999997 L 225.4 226.79999999999998 C 228.20000000000002 228.1 233 230.49999999999997 233.8 231.7 C 234.60000000000002 232.5 241.4 236.39999999999998 247.70000000000002 239.79999999999998 C 249.3 240.1 262.5 242.99999999999997 264.5 243.7 C 265.9 244.2 273.6 244.1 278.1 244 L 289.90000000000003 242.6 L 297.00000000000006 239.9 L 296.6000000000001 239.70000000000002 L 293.00000000000006 228.3 L 285.90000000000003 218.8 L 281.70000000000005 216.3 L 281.80000000000007 217.3 L 272 217.9 z" stroke-linecap="round"></path>
</g>
<g transform="matrix(1 0 0 1 667.37 535.58)">
<path style="stroke: none; stroke-width: 1; stroke-dasharray: none; stroke-linecap: butt; stroke-dashoffset: 0; stroke-linejoin: miter; stroke-miterlimit: 4; fill: rgb(61,129,48); fill-rule: nonzero; opacity: 1;" vector-effect="non-scaling-stroke" transform=" translate(-339.75, -227.15)" d="M 364.4 217.1 L 359.4 211.5 L 347.2 210.1 L 334.2 210.1 L 323.7 217.6 L 313.7 228.9 L 310.5 238.20000000000002 C 312.1 239.4 315.3 241.4 317.4 241.4 C 319.5 241.4 326.29999999999995 242.5 331.79999999999995 243.4 C 334.4 243.8 336.99999999999994 244.20000000000002 337.4 244.20000000000002 C 338.29999999999995 244.10000000000002 347.7 241.8 353.5 240.4 L 360.9 237 L 366.79999999999995 230.2 L 366.29999999999995 227 L 348.09999999999997 219.6 L 324.79999999999995 218.9 L 324.9 216.9 L 348.59999999999997 217.6 L 368.2 225.6 L 369 230.7 C 369 230.39999999999998 369 230.1 369 229.79999999999998 L 369 224.2 L 364.4 217.1 z" stroke-linecap="round"></path>
</g>
<g transform="matrix(1 0 0 1 673.57 688.08)">
<path style="stroke: none; stroke-width: 1; stroke-dasharray: none; stroke-linecap: butt; stroke-dashoffset: 0; stroke-linejoin: miter; stroke-miterlimit: 4; fill: rgb(61,129,48); fill-rule: nonzero; opacity: 1;" vector-effect="non-scaling-stroke" transform=" translate(-345.95, -379.65)" d="M 342.6 334.4 L 335.8 335.7 L 326.2 341.2 L 315.4 349.2 L 312.4 352.2 L 319.2 357 L 319.7 360.8 L 315.09999999999997 365.40000000000003 L 313.7 364.00000000000006 L 317.59999999999997 360.1000000000001 L 317.4 358.2000000000001 L 311 353.7000000000001 L 309.1 355.6000000000001 L 305.1 357.80000000000007 L 304 363.20000000000005 L 309.6 368.1 L 317.70000000000005 367.8 C 319.20000000000005 366.7 321.70000000000005 365.1 322.90000000000003 365 C 324.1 364.3 325.3 363.5 326.40000000000003 362.6 C 329.1 360.5 330.20000000000005 359.8 331.00000000000006 359.8 C 333.40000000000003 358.6 335.70000000000005 357.3 337.90000000000003 355.8 L 338.20000000000005 355.6 L 348.00000000000006 356.70000000000005 L 351.40000000000003 360.1 L 350.70000000000005 360.8 C 348.6 363.1 346.20000000000005 366.1 346.1 366.8 C 346.1 367.3 346 367.8 345.8 368.2 L 348.1 366.9 L 358.90000000000003 359.2 L 360.1 360.9 L 349.1 368.7 L 344 371.5 C 343.8 371.8 343.6 372.1 343.5 372.2 L 343.1 371.9 L 335.3 376.2 L 329.90000000000003 384 L 328.00000000000006 388.6 L 331.90000000000003 394.1 L 336.20000000000005 399 L 341.30000000000007 399.6 L 346.00000000000006 398.6 L 345.90000000000003 397.6 L 351.1 389.40000000000003 L 360.90000000000003 379.90000000000003 L 362.3 381.40000000000003 L 352.6 390.8 L 347.90000000000003 398.1 L 348.20000000000005 403.6 L 353.20000000000005 407 L 359.80000000000007 407.7 L 363.50000000000006 406.59999999999997 L 362.80000000000007 405.49999999999994 L 363.30000000000007 404.8999999999999 C 363.50000000000006 404.5999999999999 368.9000000000001 398.49999999999994 370.00000000000006 397.49999999999994 C 370.80000000000007 396.69999999999993 375.40000000000003 391.3999999999999 377.70000000000005 388.79999999999995 L 379.20000000000005 390.09999999999997 C 378.90000000000003 390.4 372.50000000000006 397.9 371.40000000000003 398.9 C 370.6 399.7 366.70000000000005 404 365.3 405.59999999999997 L 368.8 410.79999999999995 L 374.7 410.79999999999995 L 379.8 408.49999999999994 L 384 402.29999999999995 L 389.6 396.29999999999995 L 391.1 397.69999999999993 L 385.5 403.5999999999999 L 381.2 410.0999999999999 L 375.09999999999997 412.7999999999999 L 367.7 412.7999999999999 L 364.59999999999997 408.1999999999999 L 359.9 409.59999999999985 L 352.4 408.89999999999986 L 346.2 404.59999999999985 L 346 400.59999999999985 L 341.3 401.59999999999985 L 335.1 400.79999999999984 L 330.40000000000003 395.39999999999986 L 323.40000000000003 391.1999999999999 L 316.1 383.09999999999985 L 314.3 370.49999999999983 L 316.3 370.1999999999998 L 317.8 380.99999999999983 L 326.5 374.09999999999985 L 335.9 365.09999999999985 L 341.29999999999995 357.6999999999999 L 338.69999999999993 357.39999999999986 C 335.79999999999995 359.29999999999984 332.3999999999999 361.39999999999986 331.19999999999993 361.59999999999985 C 329.99999999999994 362.29999999999984 328.79999999999995 363.09999999999985 327.69999999999993 363.99999999999983 C 324.8999999999999 366.09999999999985 323.79999999999995 366.79999999999984 323.0999999999999 366.79999999999984 C 321.5999999999999 367.49999999999983 320.0999999999999 368.39999999999986 318.7999999999999 369.39999999999986 L 318.4999999999999 369.59999999999985 L 308.9999999999999 369.99999999999983 L 301.89999999999986 363.6999999999998 L 302.89999999999986 358.8999999999998 L 302.1999999999999 359.2999999999998 L 295.7999999999999 354.69999999999976 L 288.2999999999999 356.89999999999975 C 287.4999999999999 358.69999999999976 286.8999999999999 360.4999999999998 286.4999999999999 362.39999999999975 C 286.5999999999999 363.19999999999976 288.7999999999999 366.89999999999975 290.7999999999999 369.7999999999997 C 293.4999999999999 372.7999999999997 299.6999999999999 379.89999999999975 300.0999999999999 381.39999999999975 C 300.3999999999999 382.4999999999998 301.69999999999993 385.69999999999976 302.19999999999993 386.89999999999975 L 302.29999999999995 387.09999999999974 L 301.99999999999994 400.69999999999976 L 305.8999999999999 406.4999999999998 C 307.8999999999999 407.69999999999976 322.5999999999999 416.2999999999998 324.2999999999999 417.2999999999998 C 325.4999999999999 417.9999999999998 336.0999999999999 420.9999999999998 342.5999999999999 422.7999999999998 L 364.4999999999999 424.8999999999998 L 382.0999999999999 422.49999999999983 L 397.19999999999993 415.59999999999985 L 405.3999999999999 407.6999999999999 L 403.49999999999994 400.6999999999999 L 393.3999999999999 381.89999999999986 L 386.0999999999999 370.79999999999984 L 373.4 357 L 354.7 346.7 L 351.9 340.7 L 342.6 334.4 z" stroke-linecap="round"></path>
</g>
<g transform="matrix(1 0 0 1 613.12 606.93)">
<path style="stroke: none; stroke-width: 1; stroke-dasharray: none; stroke-linecap: butt; stroke-dashoffset: 0; stroke-linejoin: miter; stroke-miterlimit: 4; fill: rgb(152,59,31); fill-rule: nonzero; opacity: 1;" vector-effect="non-scaling-stroke" transform=" translate(-285.5, -298.5)" d="M 358.5 293.9 L 358.2 294 C 356.2 294.7 346 298.3 343.8 298.3 C 341.7 298.3 321.2 298.6 321 298.7 L 321 298.7 L 321 298.7 C 320.7 298.7 295.7 297.3 292.6 297.3 C 290.6 297.3 282.5 296 275.3 294.8 C 271.3 294.1 267.2 293.5 266.6 293.5 C 265.20000000000005 293.5 239.3 288.2 234.10000000000002 287.2 L 234.00000000000003 287.2 L 209.10000000000002 279.5 L 198.70000000000002 277.2 L 195.10000000000002 279.9 L 193.90000000000003 284.2 L 194.80000000000004 288.8 L 206.40000000000003 296.6 L 226.30000000000004 308.1 L 248.90000000000003 317.5 L 272.6 321.3 L 287.40000000000003 324.1 L 305.1 326.5 L 331.70000000000005 323.7 L 331.80000000000007 323.7 L 345.70000000000005 324 L 354.1 321.6 L 361.20000000000005 315.90000000000003 L 367.00000000000006 307.00000000000006 L 368.30000000000007 302.90000000000003 L 366.4000000000001 298.3 C 358.0000000000001 305.90000000000003 357.1000000000001 306.2 356.6000000000001 306.3 L 348.00000000000006 308.40000000000003 L 324.1000000000001 309.50000000000006 L 324.00000000000006 309.50000000000006 L 299.00000000000006 308.1000000000001 L 274.20000000000005 303.6000000000001 L 254.20000000000005 304.00000000000006 L 254.10000000000005 304.00000000000006 L 233.30000000000004 298.70000000000005 L 214.90000000000003 292.30000000000007 L 205.10000000000002 286.30000000000007 L 206.20000000000002 284.6000000000001 L 215.9 290.50000000000006 L 234 296.80000000000007 L 254.5 302.00000000000006 L 274.5 301.6000000000001 L 274.6 301.6000000000001 L 299.40000000000003 306.1000000000001 L 324.20000000000005 307.50000000000006 L 347.90000000000003 306.50000000000006 L 356.20000000000005 304.40000000000003 C 356.70000000000005 304.20000000000005 359.50000000000006 302.00000000000006 365.40000000000003 296.6 C 366.20000000000005 295.90000000000003 366.70000000000005 295.40000000000003 366.90000000000003 295.20000000000005 L 374.50000000000006 284.80000000000007 L 377.1000000000001 279.9000000000001 C 376.7000000000001 278.2000000000001 376.30000000000007 276.6000000000001 376.1000000000001 274.9000000000001 C 375.1000000000001 273.30000000000007 374.00000000000006 271.9000000000001 372.7000000000001 270.5000000000001 C 372.7000000000001 271.4000000000001 372.7000000000001 272.3000000000001 372.5000000000001 273.2000000000001 L 372.5000000000001 273.4000000000001 L 365.60000000000014 285.30000000000007 L 358.5 293.9 z" stroke-linecap="round"></path>
</g>
<g transform="matrix(1 0 0 1 583.57 603.98)">
<path style="stroke: none; stroke-width: 1; stroke-dasharray: none; stroke-linecap: butt; stroke-dashoffset: 0; stroke-linejoin: miter; stroke-miterlimit: 4; fill: rgb(0,0,0); fill-rule: nonzero; opacity: 1;" vector-effect="non-scaling-stroke" transform=" translate(-255.95, -295.55)" d="M 405.1 400 L 394.90000000000003 381 L 387.50000000000006 369.7 L 374.70000000000005 355.4 L 356.20000000000005 345.29999999999995 L 353.50000000000006 339.49999999999994 L 353.00000000000006 339.79999999999995 C 353.00000000000006 339.79999999999995 354.70000000000005 345.99999999999994 355.90000000000003 346.59999999999997 C 357.1 347.2 373.1 355.4 373.90000000000003 355.79999999999995 C 374.70000000000005 356.19999999999993 388.6 372.79999999999995 388.6 372.79999999999995 L 399.8 392.29999999999995 L 406.5 407.29999999999995 C 406.5 407.29999999999995 397.9 416.09999999999997 397.4 416.19999999999993 C 396.9 416.29999999999995 380.29999999999995 424.3999999999999 379.79999999999995 424.3999999999999 C 379.29999999999995 424.3999999999999 363.19999999999993 426.19999999999993 362.29999999999995 425.99999999999994 C 361.4 425.69999999999993 341.59999999999997 423.99999999999994 340.09999999999997 423.8999999999999 C 338.49999999999994 423.7999999999999 320.2 416.49999999999994 320.2 416.49999999999994 L 304.4 406.99999999999994 L 299.9 399.99999999999994 L 293.59999999999997 407.09999999999997 C 293.59999999999997 407.09999999999997 284.7 411.59999999999997 283.49999999999994 411.59999999999997 C 282.29999999999995 411.59999999999997 260.49999999999994 414.49999999999994 258.79999999999995 414.49999999999994 L 214.89999999999995 414.49999999999994 C 214.89999999999995 414.49999999999994 171.49999999999994 413.69999999999993 169.59999999999997 412.79999999999995 C 168.99999999999997 412.49999999999994 165.49999999999997 411.4 160.89999999999998 409.9 L 157.2 409.2 L 151.39999999999998 407 C 144.29999999999998 404.8 137.89999999999998 402.9 137.89999999999998 402.9 L 119.99999999999997 391.29999999999995 C 119.99999999999997 391.29999999999995 112.49999999999997 378.29999999999995 112.19999999999997 377.59999999999997 C 111.89999999999998 376.9 107.29999999999997 365.99999999999994 107.29999999999997 365.49999999999994 C 107.29999999999997 364.99999999999994 105.69999999999997 356.29999999999995 105.69999999999997 356.29999999999995 L 108.89999999999998 336.4 L 110.29999999999998 315.5 L 113.69999999999999 292.7 C 113.69999999999999 292.7 119.39999999999999 269.8 119.49999999999999 268.8 C 119.59999999999998 267.7 128.79999999999998 245.10000000000002 128.79999999999998 245.10000000000002 L 138.49999999999997 227.60000000000002 L 151.29999999999998 201.20000000000002 L 165.39999999999998 181.3 L 179.09999999999997 165 L 179.99999999999997 165.3 L 179.99999999999997 165.3 L 178.39999999999998 164 L 165.09999999999997 180.5 L 150.29999999999995 202 L 138.69999999999996 224.6 L 126.8 248 L 118.3 270.2 L 112.6 293.8 L 109.1 319.6 L 107 341.70000000000005 L 104.5 356.6 L 107 368.40000000000003 L 111.3 378.40000000000003 L 119.2 392.40000000000003 L 137.3 403.8 L 156.4 411.3 L 175.9 414.90000000000003 L 198.20000000000002 416.00000000000006 L 216.4 416.00000000000006 C 218.5 416.00000000000006 236 415.00000000000006 237.1 414.90000000000003 L 260.6 415.3 L 260.70000000000005 415.3 L 283.6 412.5 L 283.70000000000005 412.5 L 294.20000000000005 408.1 L 299.6 401.6 L 304.1 408.3 L 304.3 408.40000000000003 C 304.5 408.50000000000006 321.2 418.20000000000005 322.90000000000003 419.3 C 324.70000000000005 420.40000000000003 340.00000000000006 424.6 341.8 425 L 364.2 427.1 L 382.2 424.6 L 382.3 424.6 L 397.90000000000003 417.5 L 398.1 417.4 L 407.40000000000003 408.4 L 405.1 400 z" stroke-linecap="round"></path>
</g>
<g transform="matrix(1 0 0 1 470.52 594.43)">
<path style="stroke: none; stroke-width: 1; stroke-dasharray: none; stroke-linecap: butt; stroke-dashoffset: 0; stroke-linejoin: miter; stroke-miterlimit: 4; fill: rgb(0,0,0); fill-rule: nonzero; opacity: 1;" vector-effect="non-scaling-stroke" transform=" translate(-142.9, -286)" d="M 165.4 181.3 L 151.3 201.20000000000002 L 138.5 227.60000000000002 L 128.8 245.10000000000002 C 128.8 245.10000000000002 119.60000000000001 267.70000000000005 119.50000000000001 268.8 C 119.40000000000002 269.90000000000003 113.70000000000002 292.7 113.70000000000002 292.7 L 110.30000000000001 315.5 L 108.9 336.4 L 105.7 356.29999999999995 C 105.7 356.29999999999995 107.3 364.99999999999994 107.3 365.49999999999994 C 107.3 365.99999999999994 111.89999999999999 376.8999999999999 112.2 377.59999999999997 C 112.5 378.29999999999995 120 391.29999999999995 120 391.29999999999995 L 137.9 402.9 C 137.9 402.9 144.3 404.79999999999995 151.4 407 L 138.4 401.9 L 120.80000000000001 390.9 L 113.20000000000002 377.5 L 109.10000000000002 367.8 L 106.70000000000002 356.5 L 109.10000000000002 342 L 111.20000000000002 319.9 L 114.70000000000002 294.29999999999995 L 120.30000000000001 270.9 L 128.70000000000002 248.89999999999998 L 140.60000000000002 225.39999999999998 L 152.10000000000002 202.99999999999997 L 166.8 181.69999999999996 L 180.10000000000002 165.29999999999995 L 179.20000000000002 164.99999999999994 L 165.4 181.3 z" stroke-linecap="round"></path>
</g>
<g transform="matrix(1 0 0 1 611.42 687.55)">
<path style="stroke: none; stroke-width: 1; stroke-dasharray: none; stroke-linecap: butt; stroke-dashoffset: 0; stroke-linejoin: miter; stroke-miterlimit: 4; fill: rgb(0,0,0); fill-rule: nonzero; opacity: 1;" vector-effect="non-scaling-stroke" transform=" translate(-283.8, -379.12)" d="M 343 332.3 L 335.1 333.8 L 325.1 339.5 L 314.1 347.6 L 307.8 353.90000000000003 L 302.2 357.00000000000006 L 296 352.50000000000006 L 286.6 355.20000000000005 L 286.40000000000003 355.6 C 286.00000000000006 356.5 284.20000000000005 360.8 284.20000000000005 362.3 C 284.20000000000005 363.8 287.20000000000005 368.40000000000003 288.90000000000003 370.90000000000003 L 289.00000000000006 371.00000000000006 C 293.1000000000001 375.6000000000001 297.6000000000001 380.90000000000003 297.90000000000003 381.80000000000007 C 298.20000000000005 383.1000000000001 299.6 386.50000000000006 300.00000000000006 387.4000000000001 L 299.70000000000005 398.0000000000001 L 293.00000000000006 406.0000000000001 L 283.20000000000005 410.10000000000014 L 260.6 412.90000000000015 L 237.20000000000002 412.50000000000017 L 237.20000000000002 412.50000000000017 L 237.20000000000002 412.50000000000017 C 237.00000000000003 412.50000000000017 218.60000000000002 413.6000000000002 216.60000000000002 413.6000000000002 L 198.40000000000003 413.6000000000002 L 176.40000000000003 412.6000000000002 L 161.00000000000003 409.8000000000002 C 165.50000000000003 411.20000000000016 169.10000000000002 412.4000000000002 169.70000000000002 412.70000000000016 C 171.50000000000003 413.60000000000014 215 414.40000000000015 215 414.40000000000015 L 258.9 414.40000000000015 C 260.59999999999997 414.40000000000015 282.5 411.50000000000017 283.59999999999997 411.50000000000017 C 284.79999999999995 411.50000000000017 293.7 407.00000000000017 293.7 407.00000000000017 L 300 399.90000000000015 L 304.5 406.90000000000015 L 320.3 416.40000000000015 C 320.3 416.40000000000015 338.6 423.60000000000014 340.2 423.8000000000001 C 341.8 423.90000000000015 361.5 425.60000000000014 362.4 425.90000000000015 C 363.29999999999995 426.20000000000016 379.4 424.3000000000001 379.9 424.3000000000001 C 380.4 424.3000000000001 397 416.3000000000001 397.5 416.10000000000014 C 398 416.0000000000001 406.6 407.20000000000016 406.6 407.20000000000016 L 399.90000000000003 392.20000000000016 L 388.70000000000005 372.70000000000016 C 388.70000000000005 372.70000000000016 374.80000000000007 356.10000000000014 374.00000000000006 355.70000000000016 C 373.20000000000005 355.3000000000002 357.20000000000005 347.10000000000014 356.00000000000006 346.50000000000017 C 354.80000000000007 345.9000000000002 353.1000000000001 339.70000000000016 353.1000000000001 339.70000000000016 L 353.6000000000001 339.40000000000015 L 353.6000000000001 339.3000000000001 L 343 332.3 z M 354.6 346.7 L 373.3 357 L 385.8 370.8 L 393.1 381.90000000000003 L 403.20000000000005 400.70000000000005 L 405.1 407.70000000000005 L 396.90000000000003 415.6 L 381.8 422.5 L 364.2 424.9 L 342.3 422.79999999999995 C 335.8 420.99999999999994 325.2 417.99999999999994 324 417.29999999999995 C 322.3 416.29999999999995 307.6 407.69999999999993 305.6 406.49999999999994 L 301.70000000000005 400.69999999999993 L 302.00000000000006 387.0999999999999 L 302 387 C 301.5 385.8 300.2 382.6 299.9 381.5 C 299.5 380 293.29999999999995 372.9 290.59999999999997 369.9 C 288.59999999999997 366.9 286.29999999999995 363.2 286.29999999999995 362.5 C 286.69999999999993 360.6 287.29999999999995 358.8 288.09999999999997 357 L 295.59999999999997 354.8 L 301.99999999999994 359.40000000000003 L 302.69999999999993 359.00000000000006 L 301.69999999999993 363.80000000000007 L 308.79999999999995 370.1000000000001 L 318.29999999999995 369.7000000000001 L 318.59999999999997 369.5000000000001 C 319.9 368.5000000000001 321.4 367.60000000000014 322.9 366.9000000000001 C 323.7 366.9000000000001 324.7 366.2000000000001 327.5 364.1000000000001 C 328.6 363.2000000000001 329.8 362.4000000000001 331 361.7000000000001 C 332.2 361.6000000000001 335.7 359.4000000000001 338.5 357.5000000000001 L 341.1 357.8000000000001 L 335.70000000000005 365.2000000000001 L 326.30000000000007 374.2000000000001 L 317.6000000000001 381.1000000000001 L 316.1000000000001 370.30000000000007 L 314.1000000000001 370.6000000000001 L 315.9000000000001 383.2000000000001 L 323.2000000000001 391.3000000000001 L 330.2000000000001 395.5000000000001 L 334.9000000000001 400.9000000000001 L 341.1000000000001 401.7000000000001 L 345.80000000000007 400.7000000000001 L 346.00000000000006 404.7000000000001 L 352.20000000000005 409.0000000000001 L 359.70000000000005 409.7000000000001 L 364.40000000000003 408.3000000000001 L 367.50000000000006 412.90000000000015 L 374.90000000000003 412.90000000000015 L 381.00000000000006 410.20000000000016 L 385.30000000000007 403.70000000000016 L 390.9000000000001 397.8000000000002 L 389.4000000000001 396.4000000000002 L 383.80000000000007 402.4000000000002 L 379.6000000000001 408.6000000000002 L 374.50000000000006 410.9000000000002 L 368.6000000000001 410.9000000000002 L 365.1000000000001 405.7000000000002 C 366.50000000000006 404.1000000000002 370.4000000000001 399.80000000000024 371.2000000000001 399.0000000000002 C 372.3000000000001 397.9000000000002 378.7000000000001 390.5000000000002 379.0000000000001 390.2000000000002 L 377.5000000000001 388.9000000000002 C 375.2000000000001 391.6000000000002 370.60000000000014 396.8000000000002 369.8000000000001 397.6000000000002 C 368.7000000000001 398.7000000000002 363.3000000000001 404.8000000000002 363.10000000000014 405.00000000000017 L 362.60000000000014 405.6000000000002 L 363.3000000000001 406.7000000000002 L 359.60000000000014 407.80000000000024 L 353.0000000000001 407.10000000000025 L 348.0000000000001 403.7000000000003 L 347.7000000000001 398.2000000000003 L 352.4000000000001 390.90000000000026 L 362.1000000000001 381.5000000000003 L 360.7000000000001 380.0000000000003 L 350.9000000000001 389.5000000000003 L 345.7000000000001 397.7000000000003 L 345.8000000000001 398.7000000000003 L 341.10000000000014 399.7000000000003 L 336.0000000000001 399.10000000000025 L 331.7000000000001 394.2000000000003 L 327.8000000000001 388.7000000000003 L 329.7000000000001 384.10000000000025 L 335.1000000000001 376.30000000000024 L 342.9000000000001 372.0000000000002 L 343.30000000000007 372.30000000000024 C 343.4000000000001 372.10000000000025 343.6000000000001 371.90000000000026 343.80000000000007 371.60000000000025 L 348.9000000000001 368.80000000000024 L 359.9000000000001 361.0000000000002 L 358.7000000000001 359.30000000000024 L 347.9000000000001 367.0000000000002 L 345.6000000000001 368.30000000000024 C 345.80000000000007 367.90000000000026 345.9000000000001 367.40000000000026 345.9000000000001 366.90000000000026 C 346.0000000000001 366.10000000000025 348.4000000000001 363.2000000000003 350.5000000000001 360.90000000000026 L 351.2000000000001 360.2000000000003 L 347.8000000000001 356.8000000000003 L 338.0000000000001 355.7000000000003 L 337.7000000000001 355.90000000000026 C 335.5000000000001 357.40000000000026 333.2000000000001 358.80000000000024 330.8000000000001 359.90000000000026 C 330.0000000000001 359.90000000000026 328.90000000000015 360.7000000000003 326.2000000000001 362.7000000000003 C 325.1000000000001 363.60000000000025 323.9000000000001 364.40000000000026 322.7000000000001 365.10000000000025 C 321.5000000000001 365.2000000000003 319.1000000000001 366.80000000000024 317.5000000000001 367.90000000000026 L 309.4000000000001 368.2000000000003 L 303.80000000000007 363.3000000000003 L 304.9000000000001 357.9000000000003 L 308.9000000000001 355.70000000000033 L 310.80000000000007 353.80000000000035 L 317.20000000000005 358.30000000000035 L 317.40000000000003 360.20000000000033 L 313.50000000000006 364.1000000000003 L 314.90000000000003 365.5000000000003 L 319.50000000000006 360.90000000000026 L 319.00000000000006 357.10000000000025 L 312.20000000000005 352.30000000000024 L 315.20000000000005 349.30000000000024 L 326.00000000000006 341.30000000000024 L 335.6000000000001 335.80000000000024 L 342.4000000000001 334.5000000000002 L 351.6000000000001 340.80000000000024 L 354.6 346.7 z M 327.2 391.4 L 324.5 389.79999999999995 L 318.5 383.19999999999993 L 327.7 375.99999999999994 L 337.2 366.79999999999995 L 343.4 358.19999999999993 L 346.9 358.5999999999999 L 348.4 360.0999999999999 C 346.5 362.19999999999993 343.9 365.2999999999999 343.9 366.69999999999993 C 343.59999999999997 367.8999999999999 343 368.99999999999994 342.29999999999995 369.8999999999999 L 333.59999999999997 374.69999999999993 L 327.79999999999995 382.99999999999994 L 325.4 388.99999999999994 L 327.2 391.4 z" stroke-linecap="round"></path>
</g>
<g transform="matrix(1 0 0 1 685.87 508.83)">
<path style="stroke: none; stroke-width: 1; stroke-dasharray: none; stroke-linecap: butt; stroke-dashoffset: 0; stroke-linejoin: miter; stroke-miterlimit: 4; fill: rgb(0,0,0); fill-rule: nonzero; opacity: 1;" vector-effect="non-scaling-stroke" transform=" translate(-358.25, -200.4)" d="M 351.7 187.6 L 356.8 194.29999999999998 C 356.8 194.29999999999998 359.3 198.2 360.2 198.49999999999997 C 361.09999999999997 198.79999999999998 369.4 203.59999999999997 369.4 203.59999999999997 L 372.79999999999995 207.39999999999998 L 372.09999999999997 209.59999999999997 L 369.49999999999994 208.79999999999995 L 369.8999999999999 221.69999999999996 L 370.69999999999993 221.69999999999996 L 370.69999999999993 210.09999999999997 L 372.99999999999994 211.39999999999998 L 373.59999999999997 206.49999999999997 L 367.09999999999997 200.79999999999998 L 360.09999999999997 197.39999999999998 L 360.4 197.2 L 355 188.7 L 344.1 179.1 L 342.90000000000003 180.5 L 344.00000000000006 180.5 L 351.7 187.6 z" stroke-linecap="round"></path>
</g>
<g transform="matrix(1 0 0 1 693.82 550.83)">
<path style="stroke: none; stroke-width: 1; stroke-dasharray: none; stroke-linecap: butt; stroke-dashoffset: 0; stroke-linejoin: miter; stroke-miterlimit: 4; fill: rgb(0,0,0); fill-rule: nonzero; opacity: 1;" vector-effect="non-scaling-stroke" transform=" translate(-366.2, -242.4)" d="M 368.7 240.3 C 368.7 240.3 365 247.70000000000002 364.59999999999997 247.9 C 364.2 248.20000000000002 360.9 249.6 360.9 249.6 L 361.2 251.4 C 362.7 252.5 364.2 253.70000000000002 365.5 255 C 365.7 255.3 367.9 259.7 369.7 263 L 371.5 263 C 369.8 258 366.4 253.7 361.9 251 C 362.09999999999997 250.6 362.29999999999995 250.1 362.5 249.7 C 362.8 249.5 363.2 249.29999999999998 363.5 249 C 368.4 245.3 370.9 238.9 371.2 229.9 L 371.2 223.6 L 370 221.79999999999998 L 370.3 231.49999999999997 L 368.7 240.3 z" stroke-linecap="round"></path>
</g>
<g transform="matrix(1 0 0 1 668.62 530.33)">
<path style="stroke: none; stroke-width: 1; stroke-dasharray: none; stroke-linecap: butt; stroke-dashoffset: 0; stroke-linejoin: miter; stroke-miterlimit: 4; fill: rgb(0,0,0); fill-rule: nonzero; opacity: 1;" vector-effect="non-scaling-stroke" transform=" translate(-341, -221.9)" d="M 353.5 190.2 L 357.3 196.1 L 356.8 195.79999999999998 L 344.2 194.7 L 330 197.2 L 324.2 199.7 L 325 201.6 L 330.5 199.2 L 344.3 196.79999999999998 L 356.3 197.79999999999998 L 366.2 202.6 L 371.7 207.4 L 371.59999999999997 208.20000000000002 L 370.49999999999994 207.60000000000002 L 358.79999999999995 203.3 L 358.59999999999997 203.20000000000002 C 358.09999999999997 203.10000000000002 346.59999999999997 201.4 343.7 201.4 C 340.8 201.4 330 203.1 329.5 203.20000000000002 L 329.3 203.20000000000002 L 315.1 212.4 L 316.20000000000005 214.1 L 330.1 205.1 C 331.70000000000005 204.9 341.3 203.4 343.8 203.4 C 346.40000000000003 203.4 357.1 205 358.3 205.1 L 369.1 209 L 369.1 220 L 366.40000000000003 216 L 360.8 209.6 L 347.8 208.2 L 334 208.2 L 322.9 216.1 L 312.4 228 L 308.59999999999997 239.1 L 309.2 239.5 C 309.7 239.9 314.5 243.6 317.9 243.6 C 319.79999999999995 243.6 327.2 244.79999999999998 332 245.5 C 335.9 246.1 337.5 246.4 337.9 246.4 C 339 246.4 351 243.4 354.59999999999997 242.5 L 362.7 238.8 L 369.4 230.9 C 369 238.6 366.7 244.20000000000002 362.59999999999997 247.3 C 356.7 251.8 348.99999999999994 249.9 348.99999999999994 249.9 L 348.79999999999995 250.9 L 348.59999999999997 251.9 C 350.09999999999997 252.20000000000002 351.59999999999997 252.4 353.09999999999997 252.4 C 355.49999999999994 252.4 357.9 252 360.09999999999997 251.1 C 358.29999999999995 254.79999999999998 355.99999999999994 257.2 353.29999999999995 258.2 C 350.99999999999994 259 348.4 258.8 346.19999999999993 257.7 L 345.19999999999993 259.5 C 346.79999999999995 260.3 348.5999999999999 260.7 350.29999999999995 260.7 C 351.49999999999994 260.7 352.69999999999993 260.5 353.9 260.09999999999997 C 356.9 258.99999999999994 359.4 256.59999999999997 361.5 252.79999999999995 C 365.3 255.19999999999996 368.3 258.79999999999995 369.9 262.99999999999994 L 370.2 262.99999999999994 C 368.5 259.69999999999993 366.2 255.29999999999995 366 254.99999999999994 C 364.6 253.69999999999993 363.2 252.49999999999994 361.7 251.39999999999995 L 361.4 249.59999999999994 C 361.4 249.59999999999994 364.7 248.19999999999993 365.09999999999997 247.89999999999995 C 365.49999999999994 247.59999999999994 369.2 240.29999999999995 369.2 240.29999999999995 L 370.8 231.59999999999997 L 370.5 221.89999999999998 L 370.5 221.89999999999998 L 370.5 221.89999999999998 L 370.1 208.99999999999997 L 372.70000000000005 209.79999999999998 L 373.40000000000003 207.6 L 370.00000000000006 203.79999999999998 C 370.00000000000006 203.79999999999998 361.70000000000005 198.89999999999998 360.80000000000007 198.7 C 359.9000000000001 198.39999999999998 357.4000000000001 194.5 357.4000000000001 194.5 L 352.30000000000007 187.8 L 344.50000000000006 180.8 L 343.40000000000003 180.8 L 343.3 180.9 L 353.5 190.2 z M 369.1 230.7 L 368.3 225.6 L 348.7 217.6 L 325 216.9 L 324.9 218.9 L 348.2 219.6 L 366.4 227 L 366.9 230.2 L 361 237 L 353.6 240.4 C 347.8 241.8 338.40000000000003 244.1 337.5 244.20000000000002 C 337.1 244.20000000000002 334.5 243.8 331.9 243.4 C 326.4 242.5 319.59999999999997 241.4 317.5 241.4 C 315.5 241.4 312.3 239.4 310.6 238.20000000000002 L 313.8 228.9 L 323.8 217.6 L 334.3 210.1 L 347.3 210.1 L 359.5 211.5 L 364.5 217.1 L 369.2 224.2 L 369.2 229.79999999999998 C 369.1 230.1 369.1 230.4 369.1 230.7 L 369.1 230.7 z" stroke-linecap="round"></path>
</g>
<g transform="matrix(1 0 0 1 633.57 636.48)">
<polygon style="stroke: none; stroke-width: 1; stroke-dasharray: none; stroke-linecap: butt; stroke-dashoffset: 0; stroke-linejoin: miter; stroke-miterlimit: 4; fill: rgb(0,0,0); fill-rule: nonzero; opacity: 1;" vector-effect="non-scaling-stroke" points="-0.75,0.35 5.65,-0.35 -5.65,-0.35 "></polygon>
</g>
<g transform="matrix(1 0 0 1 685.82 642.33)">
<path style="stroke: none; stroke-width: 1; stroke-dasharray: none; stroke-linecap: butt; stroke-dashoffset: 0; stroke-linejoin: miter; stroke-miterlimit: 4; fill: rgb(0,0,0); fill-rule: nonzero; opacity: 1;" vector-effect="non-scaling-stroke" transform=" translate(-358.2, -333.9)" d="M 362.1 328.1 C 361.8 328.6 356 338 356 338 L 353.4 339.4 L 354 340.09999999999997 L 358.6 336.09999999999997 L 363 328.7 L 363 327.7 L 362.1 327.7 C 362.2 327.9 362.2 328 362.1 328.1 z" stroke-linecap="round"></path>
</g>
<g transform="matrix(1 0 0 1 685.12 641.98)">
<path style="stroke: none; stroke-width: 1; stroke-dasharray: none; stroke-linecap: butt; stroke-dashoffset: 0; stroke-linejoin: miter; stroke-miterlimit: 4; fill: rgb(0,0,0); fill-rule: nonzero; opacity: 1;" vector-effect="non-scaling-stroke" transform=" translate(-357.5, -333.55)" d="M 362.1 328.1 C 362.1 328 362.20000000000005 327.8 362.20000000000005 327.70000000000005 L 361.1 327.70000000000005 L 361.1 328.1 L 357.1 334.70000000000005 L 352.8 338.50000000000006 L 353.5 339.30000000000007 L 353.6 339.4000000000001 L 356.20000000000005 338.0000000000001 C 356.1 338 361.9 328.7 362.1 328.1 z" stroke-linecap="round"></path>
</g>
<g transform="matrix(1 0 0 1 698.77 573.98)">
<path style="stroke: none; stroke-width: 1; stroke-dasharray: none; stroke-linecap: butt; stroke-dashoffset: 0; stroke-linejoin: miter; stroke-miterlimit: 4; fill: rgb(0,0,0); fill-rule: nonzero; opacity: 1;" vector-effect="non-scaling-stroke" transform=" translate(-371.15, -265.55)" d="M 371.7 266.8 L 372.59999999999997 268.1 C 372.4 266.40000000000003 372.09999999999997 264.70000000000005 371.49999999999994 263 L 369.69999999999993 263 C 370.8 265.1 371.7 266.8 371.7 266.8 z" stroke-linecap="round"></path>
</g>
<g transform="matrix(1 0 0 1 697.57 606.18)">
<path style="stroke: none; stroke-width: 1; stroke-dasharray: none; stroke-linecap: butt; stroke-dashoffset: 0; stroke-linejoin: miter; stroke-miterlimit: 4; fill: rgb(0,0,0); fill-rule: nonzero; opacity: 1;" vector-effect="non-scaling-stroke" transform=" translate(-369.95, -297.75)" d="M 378.2 278 C 378.09999999999997 278.5 376.9 282.5 376.59999999999997 283.1 C 376.29999999999995 283.8 366.9 296.70000000000005 366.9 296.70000000000005 L 369.09999999999997 301.20000000000005 C 369.09999999999997 301.20000000000005 369.49999999999994 304.40000000000003 369.2 304.90000000000003 C 368.9 305.40000000000003 360.59999999999997 318.3 360.59999999999997 318.3 L 361.9 321.90000000000003 C 361.9 321.90000000000003 362.2 326.40000000000003 362.09999999999997 327.8 L 362.99999999999994 327.8 L 362.99999999999994 320.90000000000003 L 361.8999999999999 317.90000000000003 L 361.8999999999999 317.90000000000003 L 362.7999999999999 317.20000000000005 L 368.8999999999999 307.80000000000007 L 370.49999999999994 302.70000000000005 L 368.09999999999997 296.80000000000007 C 368.29999999999995 296.6000000000001 368.4 296.50000000000006 368.4 296.50000000000006 L 376.2 285.80000000000007 L 379.3 280.1000000000001 L 379.2 279.7000000000001 C 378.8 278.1000000000001 378.4 276.4000000000001 378.2 274.7000000000001 C 378.2 274.3000000000001 378.2 273.2000000000001 373 267.7000000000001 L 372.6 268.1000000000001 L 375.70000000000005 272.50000000000006 C 375.7 272.5 378.3 277.5 378.2 278 z" stroke-linecap="round"></path>
</g>
<g transform="matrix(1 0 0 1 612.67 603.73)">
<path style="stroke: none; stroke-width: 1; stroke-dasharray: none; stroke-linecap: butt; stroke-dashoffset: 0; stroke-linejoin: miter; stroke-miterlimit: 4; fill: rgb(0,0,0); fill-rule: nonzero; opacity: 1;" vector-effect="non-scaling-stroke" transform=" translate(-285.05, -295.3)" d="M 369.7 263 L 369.4 263 C 370.59999999999997 266.1 371 269.4 370.59999999999997 272.7 L 364 284 L 357.2 292.1 C 352.59999999999997 293.70000000000005 345.09999999999997 296.20000000000005 343.8 296.20000000000005 C 341.7 296.20000000000005 322.3 296.50000000000006 321 296.6 C 319.5 296.5 295.7 295.20000000000005 292.6 295.20000000000005 C 290.8 295.20000000000005 282 293.80000000000007 275.6 292.70000000000005 C 269.70000000000005 291.70000000000005 267.20000000000005 291.30000000000007 266.6 291.30000000000007 L 266.6 291.30000000000007 C 265.3 291.20000000000005 246.8 287.50000000000006 234.60000000000002 285.00000000000006 L 209.70000000000002 277.30000000000007 L 198.3 274.70000000000005 L 193.4 278.30000000000007 L 191.8 283.80000000000007 L 193 289.70000000000005 L 205.3 298.00000000000006 L 225.4 309.6000000000001 L 248.3 319.1000000000001 L 248.4 319.1000000000001 L 272.3 323.00000000000006 L 287.1 325.80000000000007 L 300.20000000000005 327.6000000000001 L 311.6 327.6000000000001 L 331.90000000000003 325.50000000000006 L 345.90000000000003 325.80000000000007 L 346.1 325.80000000000007 L 355.20000000000005 323.20000000000005 L 360.30000000000007 319.1 L 361.1000000000001 321.1 L 361.1000000000001 327.6 L 362.2000000000001 327.6 C 362.3000000000001 326.20000000000005 362.0000000000001 321.70000000000005 362.0000000000001 321.70000000000005 L 360.7000000000001 318.1 C 360.7000000000001 318.1 369.0000000000001 305.20000000000005 369.3000000000001 304.70000000000005 C 369.60000000000014 304.20000000000005 369.2000000000001 301.00000000000006 369.2000000000001 301.00000000000006 L 367.0000000000001 296.50000000000006 C 367.0000000000001 296.50000000000006 376.5000000000001 283.6000000000001 376.7000000000001 282.90000000000003 C 377.0000000000001 282.20000000000005 378.1000000000001 278.3 378.3000000000001 277.8 C 378.40000000000015 277.3 375.8000000000001 272.3 375.8000000000001 272.3 L 372.7000000000001 267.90000000000003 L 372.7000000000001 267.90000000000003 L 372.7000000000001 267.90000000000003 L 371.8000000000001 266.6 C 371.7 266.8 370.8 265.1 369.7 263 z M 372.6 273.2 C 372.70000000000005 272.3 372.8 271.4 372.8 270.5 C 374.1 271.8 375.2 273.3 376.2 274.9 C 376.4 276.59999999999997 376.7 278.29999999999995 377.2 279.9 L 374.59999999999997 284.79999999999995 L 366.99999999999994 295.19999999999993 C 366.79999999999995 295.3999999999999 366.19999999999993 295.8999999999999 365.49999999999994 296.5999999999999 C 359.59999999999997 301.9999999999999 356.8999999999999 304.0999999999999 356.29999999999995 304.3999999999999 L 347.99999999999994 306.49999999999994 L 324.29999999999995 307.49999999999994 L 299.49999999999994 306.09999999999997 L 274.69999999999993 301.59999999999997 L 274.5999999999999 301.59999999999997 L 254.5999999999999 301.99999999999994 L 234.0999999999999 296.79999999999995 L 215.99999999999991 290.49999999999994 L 206.29999999999993 284.59999999999997 L 205.19999999999993 286.29999999999995 L 214.99999999999994 292.29999999999995 L 233.39999999999995 298.69999999999993 L 254.19999999999996 303.99999999999994 L 254.29999999999995 303.99999999999994 L 274.29999999999995 303.59999999999997 L 299.09999999999997 308.09999999999997 L 324.09999999999997 309.49999999999994 L 324.2 309.49999999999994 L 348.09999999999997 308.3999999999999 L 356.7 306.2999999999999 C 357.09999999999997 306.1999999999999 358.09999999999997 305.8999999999999 366.5 298.2999999999999 L 368.4 302.8999999999999 L 367.09999999999997 306.99999999999994 L 361.29999999999995 315.8999999999999 L 354.19999999999993 321.5999999999999 L 345.79999999999995 323.9999999999999 L 331.9 323.6999999999999 L 331.79999999999995 323.6999999999999 L 305.19999999999993 326.4999999999999 L 287.49999999999994 324.0999999999999 L 272.69999999999993 321.2999999999999 L 248.99999999999994 317.4999999999999 L 226.39999999999995 308.0999999999999 L 206.49999999999994 296.5999999999999 L 194.89999999999995 288.7999999999999 L 193.99999999999994 284.1999999999999 L 195.19999999999993 279.89999999999986 L 198.79999999999993 277.1999999999999 L 209.19999999999993 279.4999999999999 L 234.09999999999994 287.1999999999999 L 234.19999999999993 287.1999999999999 C 239.39999999999992 288.2999999999999 265.19999999999993 293.4999999999999 266.69999999999993 293.4999999999999 C 267.19999999999993 293.4999999999999 271.3999999999999 294.1999999999999 275.3999999999999 294.7999999999999 C 282.5999999999999 295.9999999999999 290.69999999999993 297.2999999999999 292.69999999999993 297.2999999999999 C 295.79999999999995 297.2999999999999 320.79999999999995 298.6999999999999 321.0999999999999 298.6999999999999 L 321.0999999999999 298.6999999999999 L 321.0999999999999 298.6999999999999 C 321.2999999999999 298.6999999999999 341.7999999999999 298.2999999999999 343.8999999999999 298.2999999999999 C 346.0999999999999 298.2999999999999 356.2999999999999 294.6999999999999 358.2999999999999 293.9999999999999 L 358.5999999999999 293.89999999999986 L 365.7999999999999 285.29999999999984 L 372.6999999999999 273.39999999999986 L 372.6 273.2 z" stroke-linecap="round"></path>
</g>
<g transform="matrix(1 0 0 1 524.72 582.68)">
<path style="stroke: none; stroke-width: 1; stroke-dasharray: none; stroke-linecap: butt; stroke-dashoffset: 0; stroke-linejoin: miter; stroke-miterlimit: 4; fill: rgb(0,0,0); fill-rule: nonzero; opacity: 1;" vector-effect="non-scaling-stroke" transform=" translate(-197.1, -274.25)" d="M 201.5 270.9 C 203.8 270.4 206.2 270.4 208.5 270.9 L 209 268.9 C 208.5 268.79999999999995 196.3 265.7 185.2 278.7 L 186.7 280 C 192.1 273.7 197.7 271.6 201.5 270.9 z" stroke-linecap="round"></path>
</g>
<g transform="matrix(1 0 0 1 527.42 569.63)">
<polygon style="stroke: none; stroke-width: 1; stroke-dasharray: none; stroke-linecap: butt; stroke-dashoffset: 0; stroke-linejoin: miter; stroke-miterlimit: 4; fill: rgb(0,0,0); fill-rule: nonzero; opacity: 1;" vector-effect="non-scaling-stroke" points="-1.5,1.8 5.3,0.2 4.9,-1.8 -5.3,0.6 -5,1.8 "></polygon>
</g>
<g transform="matrix(1 0 0 1 524.17 571.83)">
<polygon style="stroke: none; stroke-width: 1; stroke-dasharray: none; stroke-linecap: butt; stroke-dashoffset: 0; stroke-linejoin: miter; stroke-miterlimit: 4; fill: rgb(0,0,0); fill-rule: nonzero; opacity: 1;" vector-effect="non-scaling-stroke" points="-1.55,0.4 1.75,-0.4 -1.75,-0.4 "></polygon>
</g>
<g transform="matrix(1 0 0 1 653.67 564.43)">
<path style="stroke: none; stroke-width: 1; stroke-dasharray: none; stroke-linecap: butt; stroke-dashoffset: 0; stroke-linejoin: miter; stroke-miterlimit: 4; fill: rgb(0,0,0); fill-rule: nonzero; opacity: 1;" vector-effect="non-scaling-stroke" transform=" translate(-326.05, -256)" d="M 319.3 254 C 323.3 256.6 327 259.6 330.3 263 L 333.1 263 C 330.3 259.8 327.20000000000005 257 323.8 254.5 L 331.7 255.4 L 338.5 254 L 338.1 252 L 331.6 253.4 L 320.20000000000005 252.1 C 318.40000000000003 250.9 316.50000000000006 249.9 314.50000000000006 249 L 313.6000000000001 250.8 L 319.3 254 L 319.3 254 z" stroke-linecap="round"></path>
</g>
<g transform="matrix(1 0 0 1 661.97 575.63)">
<path style="stroke: none; stroke-width: 1; stroke-dasharray: none; stroke-linecap: butt; stroke-dashoffset: 0; stroke-linejoin: miter; stroke-miterlimit: 4; fill: rgb(0,0,0); fill-rule: nonzero; opacity: 1;" vector-effect="non-scaling-stroke" transform=" translate(-334.35, -267.2)" d="M 336.6 271.4 L 338.40000000000003 270.4 C 336.90000000000003 267.79999999999995 335.1 265.29999999999995 333.1 263 L 330.3 263 C 332.7 265.6 334.8 268.4 336.6 271.4 z" stroke-linecap="round"></path>
</g>
<g transform="matrix(1 0 0 1 580.07 536.83)">
<path style="stroke: none; stroke-width: 1; stroke-dasharray: none; stroke-linecap: butt; stroke-dashoffset: 0; stroke-linejoin: miter; stroke-miterlimit: 4; fill: rgb(0,0,0); fill-rule: nonzero; opacity: 1;" vector-effect="non-scaling-stroke" transform=" translate(-252.45, -228.4)" d="M 208 219.1 L 211.5 221.1 L 211.7 222.4 L 213.2 222.1 L 224.29999999999998 228.6 L 224.39999999999998 228.6 C 227.7 230.2 231.59999999999997 232.2 232.09999999999997 232.79999999999998 C 232.79999999999995 233.79999999999998 240.49999999999997 238.1 246.79999999999995 241.6 L 246.89999999999995 241.7 L 246.99999999999994 241.7 C 252.09999999999994 242.79999999999998 262.09999999999997 245 263.69999999999993 245.5 C 264.8999999999999 245.9 268.5999999999999 246 271.8999999999999 246 C 274.7999999999999 246 277.49999999999994 245.9 277.99999999999994 245.9 L 289.99999999999994 244.5 L 298.69999999999993 241.3 L 298.5999999999999 241 L 301.19999999999993 242.7 L 301.19999999999993 245.2 L 297.49999999999994 248.6 L 289.09999999999997 252.1 L 287.59999999999997 253.4 L 287.7 252.70000000000002 C 283.9 252.4 279.4 251.8 278.7 251.50000000000003 C 278.2 251.20000000000002 277.4 250.60000000000002 258.5 250.60000000000002 C 254.9 250.60000000000002 245.9 248.60000000000002 244.8 248.20000000000002 C 243.8 247.9 236 245.50000000000003 234.5 245.10000000000002 C 233.2 243.8 225.3 236.50000000000003 219 232.8 L 218 234.60000000000002 C 224.5 238.40000000000003 233.2 246.60000000000002 233.2 246.70000000000002 L 233.39999999999998 246.9 L 233.59999999999997 247 C 233.69999999999996 247 243.09999999999997 249.8 244.09999999999997 250.1 C 245.29999999999995 250.5 254.49999999999997 252.6 258.49999999999994 252.6 C 274.19999999999993 252.6 277.09999999999997 253 277.69999999999993 253.2 C 278.79999999999995 253.79999999999998 282.99999999999994 254.29999999999998 286.19999999999993 254.6 L 285.0999999999999 255.5 L 280.4999999999999 263 L 282.89999999999986 263 L 286.6999999999999 256.8 L 290.2999999999999 253.8 L 298.6999999999999 250.3 L 303.39999999999986 246 L 303.39999999999986 241.5 L 298.29999999999984 238.2 L 294.79999999999984 227.2 L 287.1999999999998 217.1 L 279.29999999999984 212.4 L 260.1999999999998 202.5 L 245.49999999999983 201.1 L 228.09999999999982 202.9 L 214.69999999999982 208 L 207.2999999999998 217.2 L 202.7999999999998 219.6 L 200.9999999999998 218 L 201.8999999999998 212.6 L 210.3999999999998 204.4 L 217.8999999999998 198.3 L 228.3999999999998 196.3 L 240.19999999999982 196 L 252.7999999999998 196 L 263.0999999999998 196.3 L 273.7999999999998 202.20000000000002 C 278.3999999999998 204.60000000000002 283.69999999999976 207.60000000000002 284.19999999999976 208.4 C 284.89999999999975 209.8 292.69999999999976 217.20000000000002 295.19999999999976 219.5 L 302.2999999999998 228.7 L 303.2999999999998 236.1 L 305.2999999999998 235.79999999999998 L 304.19999999999976 227.79999999999998 L 296.69999999999976 218.1 L 296.59999999999974 218 C 291.69999999999976 213.5 286.39999999999975 208.3 285.89999999999975 207.4 C 285.19999999999976 205.9 278.4999999999998 202.3 274.59999999999974 200.3 L 267.2999999999997 196.3 L 283.9999999999997 196.60000000000002 L 289.9999999999997 200.3 L 297.8999999999997 207.5 L 302.1999999999997 212.9 L 304.2999999999997 224.20000000000002 L 306.2999999999997 223.8 L 304.09999999999974 212 L 299.39999999999975 206.2 L 291.19999999999976 198.7 L 284.4999999999998 194.6 L 263.19999999999976 194.2 L 252.69999999999976 193.79999999999998 L 239.99999999999977 193.79999999999998 L 228.09999999999977 194.2 L 216.79999999999976 196.39999999999998 L 208.89999999999975 202.89999999999998 L 199.79999999999976 211.59999999999997 L 198.59999999999977 218.79999999999995 L 202.39999999999978 222.09999999999997 L 208 219.1 z M 286 218.7 L 293.1 228.2 L 296.70000000000005 239.6 L 297.1 239.79999999999998 L 290 242.49999999999997 L 278.2 243.89999999999998 C 273.7 243.99999999999997 266 244.09999999999997 264.59999999999997 243.59999999999997 C 262.59999999999997 242.89999999999998 249.39999999999998 240.09999999999997 247.79999999999995 239.69999999999996 C 241.49999999999994 236.29999999999995 234.59999999999997 232.39999999999995 233.89999999999995 231.59999999999997 C 233.09999999999994 230.49999999999997 228.29999999999995 228.09999999999997 225.49999999999994 226.69999999999996 L 216.49999999999994 221.39999999999995 L 223.09999999999994 220.19999999999996 C 227.19999999999993 219.69999999999996 237.99999999999994 218.49999999999997 239.39999999999995 218.49999999999997 C 239.99999999999994 218.49999999999997 242.19999999999996 218.69999999999996 244.49999999999994 218.89999999999998 C 251.29999999999995 219.49999999999997 254.49999999999994 219.7 255.39999999999995 219.49999999999997 C 256.4 219.29999999999998 265.9 218.29999999999998 272.09999999999997 217.79999999999998 L 281.9 217.1 L 281.79999999999995 216.1 L 286 218.7 z M 216 209.7 L 228.6 204.89999999999998 L 245.6 203.2 L 259.7 204.6 L 278.4 214.29999999999998 L 280.09999999999997 215.29999999999998 L 271.79999999999995 215.89999999999998 C 270.19999999999993 215.99999999999997 256.19999999999993 217.29999999999998 254.79999999999995 217.7 C 253.89999999999995 217.89999999999998 248.09999999999997 217.29999999999998 244.49999999999994 217 C 241.89999999999995 216.8 239.89999999999995 216.6 239.19999999999993 216.6 C 237.39999999999992 216.6 223.19999999999993 218.29999999999998 222.59999999999994 218.4 L 213.59999999999994 220.1 L 209.49999999999994 217.7 L 216 209.7 z" stroke-linecap="round"></path>
</g>
<g transform="matrix(1 0 0 1 593.67 578.98)">
<path style="stroke: none; stroke-width: 1; stroke-dasharray: none; stroke-linecap: butt; stroke-dashoffset: 0; stroke-linejoin: miter; stroke-miterlimit: 4; fill: rgb(0,0,0); fill-rule: nonzero; opacity: 1;" vector-effect="non-scaling-stroke" transform=" translate(-266.05, -270.55)" d="M 279.6 264.5 C 277.3 265.8 275 266.8 272.6 267.8 C 271.5 267.8 265.3 270.7 260.3 273.1 C 259.40000000000003 273.40000000000003 251.20000000000002 275.90000000000003 249.3 276.20000000000005 L 249.60000000000002 278.20000000000005 C 251.70000000000002 277.80000000000007 260.6 275.1 261 275.00000000000006 L 261.1 274.90000000000003 C 266.1 272.50000000000006 271.8 269.90000000000003 272.6 269.70000000000005 C 273.8 269.6 278.20000000000005 267.40000000000003 280.70000000000005 266.1 L 280.90000000000003 266 L 282.8 262.9 L 280.40000000000003 262.9 L 279.6 264.5 z" stroke-linecap="round"></path>
</g>
<g transform="matrix(1 0 0 1 616.42 491.48)">
<path style="stroke: none; stroke-width: 1; stroke-dasharray: none; stroke-linecap: butt; stroke-dashoffset: 0; stroke-linejoin: miter; stroke-miterlimit: 4; fill: rgb(0,0,0); fill-rule: nonzero; opacity: 1;" vector-effect="non-scaling-stroke" transform=" translate(-288.8, -183.05)" d="M 289.2 182.6 L 287.9 183.5 C 288.5 183.4 289.09999999999997 183.4 289.7 183.3 L 289.2 182.6 z" stroke-linecap="round"></path>
</g>
<g transform="matrix(1 0 0 1 620.77 501.38)">
<path style="stroke: none; stroke-width: 1; stroke-dasharray: none; stroke-linecap: butt; stroke-dashoffset: 0; stroke-linejoin: miter; stroke-miterlimit: 4; fill: rgb(0,0,0); fill-rule: nonzero; opacity: 1;" vector-effect="non-scaling-stroke" transform=" translate(-293.15, -192.95)" d="M 293.9 192.9 L 296.5 197.4 L 295.2 201.9 L 297.2 202.5 L 298.7 197.2 L 295.7 191.89999999999998 L 289.8 183.39999999999998 C 289.2 183.49999999999997 288.6 183.49999999999997 288 183.59999999999997 L 287.6 183.89999999999998 L 293.9 192.9 z" stroke-linecap="round"></path>
</g>
<g transform="matrix(1 0 0 1 616.17 453.33)">
<path style="stroke: none; stroke-width: 1; stroke-dasharray: none; stroke-linecap: butt; stroke-dashoffset: 0; stroke-linejoin: miter; stroke-miterlimit: 4; fill: rgb(200,39,39); fill-rule: nonzero; opacity: 1;" vector-effect="non-scaling-stroke" transform=" translate(-288.55, -144.9)" d="M 355.1 190.5 L 364 189.6 C 364 189.6 386.2 196.2 387.1 197.1 C 388.00000000000006 198 399.20000000000005 202.9 399.20000000000005 202.9 L 405.80000000000007 203.5 L 406.70000000000005 197.5 L 401.80000000000007 190.5 L 387.70000000000005 180.1 L 371.6 172.29999999999998 L 361.5 168.79999999999998 L 357.9 117.79999999999998 L 349.4 105.09999999999998 L 336.7 94.69999999999997 L 320.3 86.59999999999998 L 303.3 86.29999999999998 L 271.3 90.29999999999998 L 241.9 96.09999999999998 L 240.20000000000002 91.09999999999998 C 237.9 90.49999999999999 235.60000000000002 90.09999999999998 233.3 89.79999999999998 C 231.60000000000002 89.79999999999998 216 94.59999999999998 216 94.59999999999998 L 206.5 99.59999999999998 L 204.5 105.39999999999998 L 190.9 112.89999999999998 L 179.9 126.69999999999997 L 173.6 139.99999999999997 C 173.6 139.99999999999997 170.4 153.29999999999998 170.4 154.09999999999997 C 170.4 154.89999999999995 172.1 162.19999999999996 173.3 162.69999999999996 C 174.50000000000003 163.19999999999996 183.4 165.59999999999997 183.4 165.59999999999997 L 195.1 171.39999999999998 L 212 181.2 L 233 188.1 C 233 188.1 252.9 186.7 254.9 186.7 C 256.9 186.7 286.9 183.5 288.6 183.5 C 290.30000000000007 183.5 323.20000000000005 180.9 324.1 180.9 C 325 180.9 344.6 180.6 344.6 180.6 L 352.40000000000003 187.5 L 355.1 190.5 z" stroke-linecap="round"></path>
</g>
<g transform="matrix(1 0 0 1 661.87 539.33)">
<polyline style="stroke: none; stroke-width: 1; stroke-dasharray: none; stroke-linecap: butt; stroke-dashoffset: 0; stroke-linejoin: miter; stroke-miterlimit: 4; fill: rgb(0,0,0); fill-rule: nonzero; opacity: 1;" vector-effect="non-scaling-stroke" points="13.05,-12.1 15.65,-6.6 17.25,-0.3 16.45,3.7 13.05,12.4 2.25,14.2 -15.15,11.1 -17.25,5 -16.45,-0.5 -14.65,-9.2 -10.15,-14.2 -7.25,-12.6 11.95,-12.1 "></polyline>
</g>
<g transform="matrix(1 0 0 1 579.22 539.13)">
<path style="stroke: none; stroke-width: 1; stroke-dasharray: none; stroke-linecap: butt; stroke-dashoffset: 0; stroke-linejoin: miter; stroke-miterlimit: 4; fill: rgb(0,0,0); fill-rule: nonzero; opacity: 1;" vector-effect="non-scaling-stroke" transform=" translate(-251.6, -230.7)" d="M 268.1 218 L 271.3 224.1 L 271.6 231.5 L 270 238.1 L 266.6 243.4 L 261.1 243.70000000000002 L 240.00000000000003 237.4 L 231.60000000000002 230 L 232.70000000000002 225.3 L 235.60000000000002 220.8 L 239.50000000000003 217.70000000000002 L 254.30000000000004 218.10000000000002 C 254.1 218 267.5 219.1 268.1 218 z" stroke-linecap="round"></path>
</g>
<g transform="matrix(1 0 0 1 615.62 452.58)">
<path style="stroke: none; stroke-width: 1; stroke-dasharray: none; stroke-linecap: butt; stroke-dashoffset: 0; stroke-linejoin: miter; stroke-miterlimit: 4; fill: rgb(0,0,0); fill-rule: nonzero; opacity: 1;" vector-effect="non-scaling-stroke" transform=" translate(-288, -144.15)" d="M 404 191.3 L 395.8 184.10000000000002 L 384 176.20000000000002 L 364.6 169.10000000000002 L 361.90000000000003 168.00000000000003 L 361.1 151.30000000000004 C 360.1 143.10000000000005 358.70000000000005 130.70000000000005 358.70000000000005 129.70000000000005 C 358.70000000000005 128.30000000000004 358.00000000000006 118.10000000000005 358.00000000000006 117.70000000000005 L 358.00000000000006 117.50000000000004 L 352.20000000000005 107.00000000000004 L 342.50000000000006 97.00000000000004 L 327.6000000000001 88.50000000000004 L 315.2 85 L 298.2 85 L 281.5 87.1 C 274.8 88.19999999999999 264.3 89.89999999999999 263.1 89.89999999999999 C 261.3 89.89999999999999 247.3 93.1 245.70000000000002 93.39999999999999 L 240.8 94.69999999999999 L 241.60000000000002 94.29999999999998 L 240.00000000000003 91.09999999999998 L 234.80000000000004 89.09999999999998 L 227.20000000000005 89.79999999999998 L 215 92.8 L 205.8 98.7 L 203.9 103.60000000000001 L 205.20000000000002 104.10000000000001 L 200.10000000000002 105.4 L 199.90000000000003 105.4 L 189.10000000000002 112.2 L 181.60000000000002 120.7 L 174.8 132.1 L 169.4 150.7 L 169.4 157.39999999999998 L 172.9 163.59999999999997 L 194.8 171.39999999999998 L 202.10000000000002 177.99999999999997 L 218.40000000000003 185.39999999999998 L 232.80000000000004 188.99999999999997 L 259.70000000000005 187.19999999999996 L 298.6 182.99999999999997 L 326.3 180.89999999999998 L 349.3 181.2 L 373.6 184.7 L 392.8 193.79999999999998 L 393.7 191.99999999999997 L 374.3 182.79999999999998 L 349.6 179.29999999999998 L 326.3 178.89999999999998 L 298.5 180.99999999999997 L 259.6 185.19999999999996 L 233.10000000000002 186.89999999999995 L 219.3 183.49999999999994 L 203.4 176.19999999999993 L 196 169.49999999999994 L 174.4 161.79999999999995 L 171.6 156.79999999999995 L 171.6 150.89999999999995 L 176.79999999999998 132.89999999999995 L 183.39999999999998 121.89999999999995 L 190.59999999999997 113.69999999999995 L 200.89999999999998 107.19999999999995 L 246.29999999999998 95.29999999999994 C 252.2 93.99999999999994 262.09999999999997 91.79999999999994 263.29999999999995 91.79999999999994 C 265.09999999999997 91.79999999999994 280.29999999999995 89.29999999999994 281.99999999999994 88.99999999999994 L 298.3999999999999 86.89999999999995 L 314.99999999999994 86.89999999999995 L 326.69999999999993 90.29999999999995 L 341.19999999999993 98.59999999999995 L 350.49999999999994 108.19999999999995 L 355.8999999999999 118.09999999999995 C 356.0999999999999 121.79999999999995 356.5999999999999 128.69999999999996 356.5999999999999 129.69999999999996 C 356.5999999999999 131.09999999999997 358.7999999999999 149.49999999999997 359.0999999999999 151.49999999999997 L 359.8999999999999 167.19999999999996 L 348.0999999999999 162.69999999999996 L 324.7999999999999 160.19999999999996 L 307.1999999999999 158.39999999999995 L 289.89999999999986 159.79999999999995 L 269.89999999999986 161.89999999999995 L 246.59999999999985 167.19999999999996 L 229.09999999999985 171.39999999999995 L 217.39999999999986 172.09999999999994 L 202.39999999999986 169.09999999999994 L 209.99999999999986 174.59999999999994 L 216.19999999999985 178.19999999999993 L 230.39999999999984 181.69999999999993 L 244.29999999999984 182.09999999999994 L 244.39999999999984 182.09999999999994 L 256.79999999999984 180.69999999999993 L 274.29999999999984 177.89999999999992 L 291.39999999999986 175.0999999999999 L 310.59999999999985 173.6999999999999 L 323.89999999999986 172.99999999999991 L 339.89999999999986 173.99999999999991 L 361.59999999999985 176.79999999999993 L 389.59999999999985 182.09999999999994 L 394.49999999999983 185.29999999999993 L 402.29999999999984 192.09999999999994 L 404.49999999999983 197.19999999999993 L 403.99999999999983 200.99999999999994 L 399.79999999999984 201.29999999999995 L 391.59999999999985 197.49999999999994 L 376.49999999999983 191.49999999999994 L 364.59999999999985 187.89999999999995 L 354.1999999999999 188.99999999999994 L 354.39999999999986 190.99999999999994 L 364.39999999999986 189.99999999999994 L 375.6999999999999 193.39999999999995 L 390.6999999999999 199.29999999999995 L 399.39999999999986 203.29999999999995 L 405.6999999999999 202.89999999999995 L 406.59999999999985 196.89999999999995 L 404 191.3 z M 206 103.8 L 207.5 100 L 215.8 94.7 L 227.5 91.9 L 234.6 91.2 L 238.6 92.7 L 239.7 94.9 L 206 103.8 z M 361.9 175.2 L 361.7 176.2 L 361.9 175.2 L 340 172.39999999999998 L 323.8 171.29999999999998 L 310.40000000000003 171.99999999999997 L 291.1 173.39999999999998 L 273.8 176.2 L 256.3 179 L 244.10000000000002 180.4 L 230.60000000000002 180.1 L 216.8 176.7 L 211 173.29999999999998 L 210.9 173.29999999999998 L 217 174.49999999999997 L 229.1 173.79999999999998 L 246.79999999999998 169.6 L 269.9 164.4 L 289.79999999999995 162.3 L 306.9 160.9 L 324.29999999999995 162.6 L 347.29999999999995 165 L 363.69999999999993 171.3 L 382.8999999999999 178.3 L 385.0999999999999 179.8 L 361.9 175.2 z" stroke-linecap="round"></path>
</g>
<g transform="matrix(0.96 -0.29 0.29 0.96 587.62 537.92)">
<ellipse style="stroke: none; stroke-width: 1; stroke-dasharray: none; stroke-linecap: butt; stroke-dashoffset: 0; stroke-linejoin: miter; stroke-miterlimit: 4; fill: rgb(255,255,255); fill-rule: nonzero; opacity: 1;" vector-effect="non-scaling-stroke" cx="0" cy="0" rx="6.3" ry="5.3"></ellipse>
</g>
<g transform="matrix(1 0 0 1 572.82 539.83)">
<circle style="stroke: none; stroke-width: 1; stroke-dasharray: none; stroke-linecap: butt; stroke-dashoffset: 0; stroke-linejoin: miter; stroke-miterlimit: 4; fill: rgb(255,255,255); fill-rule: nonzero; opacity: 1;" vector-effect="non-scaling-stroke" cx="0" cy="0" r="2.6"></circle>
</g>
<g transform="matrix(1 0 0 1 571.22 531.73)">
<circle style="stroke: none; stroke-width: 1; stroke-dasharray: none; stroke-linecap: butt; stroke-dashoffset: 0; stroke-linejoin: miter; stroke-miterlimit: 4; fill: rgb(255,255,255); fill-rule: nonzero; opacity: 1;" vector-effect="non-scaling-stroke" cx="0" cy="0" r="2.6"></circle>
</g>
<g transform="matrix(1 0 0 1 655.92 543.33)">
<circle style="stroke: none; stroke-width: 1; stroke-dasharray: none; stroke-linecap: butt; stroke-dashoffset: 0; stroke-linejoin: miter; stroke-miterlimit: 4; fill: rgb(255,255,255); fill-rule: nonzero; opacity: 1;" vector-effect="non-scaling-stroke" cx="0" cy="0" r="2.4"></circle>
</g>
<g transform="matrix(1 0 0 1 655.62 534.03)">
<circle style="stroke: none; stroke-width: 1; stroke-dasharray: none; stroke-linecap: butt; stroke-dashoffset: 0; stroke-linejoin: miter; stroke-miterlimit: 4; fill: rgb(255,255,255); fill-rule: nonzero; opacity: 1;" vector-effect="non-scaling-stroke" cx="0" cy="0" r="2.6"></circle>
</g>
<g transform="matrix(1 0 0 1 669.92 539.33)">
<circle style="stroke: none; stroke-width: 1; stroke-dasharray: none; stroke-linecap: butt; stroke-dashoffset: 0; stroke-linejoin: miter; stroke-miterlimit: 4; fill: rgb(255,255,255); fill-rule: nonzero; opacity: 1;" vector-effect="non-scaling-stroke" cx="0" cy="0" r="4.7"></circle>
</g>
</svg>