<svg width="13" height="12" viewBox="0 0 13 12" fill="none" xmlns="http://www.w3.org/2000/svg">
<path opacity="0.2" d="M9.81372 5.56257L6.75122 2.50007L8.37325 0.878039C8.45529 0.796054 8.56653 0.75 8.68251 0.75C8.79849 0.75 8.90973 0.796054 8.99177 0.878039L11.4358 3.32038C11.5177 3.40242 11.5638 3.51366 11.5638 3.62964C11.5638 3.74562 11.5177 3.85686 11.4358 3.9389L9.81372 5.56257Z" fill="#7C7D81"/>
<path d="M4.38271 10.8126H1.93872C1.82269 10.8126 1.71141 10.7665 1.62936 10.6844C1.54731 10.6024 1.50122 10.4911 1.50122 10.3751V7.93109C1.50127 7.81521 1.5473 7.70408 1.62919 7.6221L8.37325 0.878039C8.45529 0.796054 8.56653 0.75 8.68251 0.75C8.79849 0.75 8.90973 0.796054 8.99177 0.878039L11.4358 3.32038C11.5177 3.40242 11.5638 3.51366 11.5638 3.62964C11.5638 3.74562 11.5177 3.85686 11.4358 3.9389L4.69169 10.6846C4.60971 10.7665 4.49858 10.8125 4.38271 10.8126Z" stroke="#7C7D81" stroke-width="1.5" stroke-linecap="round" stroke-linejoin="round"/>
<path d="M6.75122 2.5L9.81372 5.5625" stroke="#7C7D81" stroke-width="1.5" stroke-linecap="round" stroke-linejoin="round"/>
</svg>
