<svg xmlns="http://www.w3.org/2000/svg" xmlns:xlink="http://www.w3.org/1999/xlink" version="1.1" width="278.66700000000014" height="252.29981250000012" viewBox="411.82087499999994 418.96743749999996 278.66700000000014 252.29981250000012" xml:space="preserve">
<desc>Created with Fabric.js 5.2.4</desc>
<defs>
</defs>
<g transform="matrix(1 0 0 1 540 540)" id="78eed795-44d1-42b8-8faf-6e48d15c44a5">
<rect style="stroke: none; stroke-width: 1; stroke-dasharray: none; stroke-linecap: butt; stroke-dashoffset: 0; stroke-linejoin: miter; stroke-miterlimit: 4; fill: rgb(255,255,255); fill-rule: nonzero; opacity: 1; visibility: hidden;" vector-effect="non-scaling-stroke" x="-540" y="-540" rx="0" ry="0" width="1080" height="1080"></rect>
</g>
<g transform="matrix(1 0 0 1 540 540)" id="9f022a77-a09f-42c5-88ca-e165015d9f77">
</g>
<g transform="matrix(1 0 0 1 549.52 540)">
<path style="stroke: none; stroke-width: 1; stroke-dasharray: none; stroke-linecap: butt; stroke-dashoffset: 0; stroke-linejoin: miter; stroke-miterlimit: 4; fill: rgb(255,255,255); fill-rule: evenodd; opacity: 1;" vector-effect="non-scaling-stroke" transform=" translate(-430.52, -297.85)" d="M 332.29 187.7 L 421.39 187.7 C 475.59 187.7 516.67 216.82999999999998 531.96 259.21999999999997 L 559.72 259.21999999999997 L 559.72 284.84 L 537.8 284.84 C 538.2299999999999 288.89 538.4499999999999 293.01 538.4499999999999 297.2 L 538.4499999999999 297.83 C 538.4499999999999 302.55 538.17 307.19 537.6299999999999 311.72999999999996 L 559.7099999999999 311.72999999999996 L 559.7099999999999 337.34999999999997 L 531.42 337.34999999999997 C 515.7299999999999 379.15 474.96999999999997 408 421.37999999999994 408 L 332.28 408 L 332.28 337.35 L 301.32 337.35 L 301.32 311.73 L 332.28 311.73 L 332.28 284.84000000000003 L 301.32 284.84000000000003 L 301.32 259.22 L 332.28 259.22 L 332.28 187.7 z M 357.2 337.35 L 357.2 385.02000000000004 L 421.39 385.02000000000004 C 461 385.02000000000004 490.43 365.93000000000006 504.14 337.35 L 357.2 337.35 z M 511.77 311.73 L 357.2 311.73 L 357.2 284.84000000000003 L 511.81 284.84000000000003 C 512.38 289.07000000000005 512.68 293.41 512.68 297.83000000000004 L 512.68 298.46000000000004 C 512.67 302.99 512.37 307.42 511.77 311.73 z M 421.39 210.64 C 461.19 210.64 490.71 230.23999999999998 504.32 259.21999999999997 L 357.2 259.21999999999997 L 357.2 210.64 L 421.39 210.64 z" stroke-linecap="round"></path>
</g>
</svg>