<svg width="14" height="14" viewBox="0 0 14 14" fill="none" xmlns="http://www.w3.org/2000/svg">
<g clip-path="url(#clip0_12935_26726)">
<path d="M8.18453 8.18451L7.18101 9.18748L8.18453 10.1904C8.22518 10.2311 8.25742 10.2794 8.27942 10.3325C8.30142 10.3856 8.31274 10.4425 8.31274 10.5C8.31274 10.5575 8.30142 10.6144 8.27942 10.6675C8.25742 10.7206 8.22518 10.7689 8.18453 10.8095C8.14388 10.8502 8.09563 10.8824 8.04252 10.9044C7.98941 10.9264 7.93248 10.9377 7.875 10.9377C7.81751 10.9377 7.76059 10.9264 7.70748 10.9044C7.65437 10.8824 7.60612 10.8502 7.56547 10.8095L7.21875 10.4622L5.94398 11.7376C5.61536 12.065 5.17034 12.2489 4.70641 12.2489C4.24247 12.2489 3.79745 12.065 3.46883 11.7376L3.17516 11.4433L1.62203 12.997C1.58138 13.0377 1.53313 13.0699 1.48002 13.0919C1.42691 13.1139 1.36998 13.1252 1.3125 13.1252C1.25501 13.1252 1.19809 13.1139 1.14498 13.0919C1.09187 13.0699 1.04362 13.0377 1.00297 12.997C0.96232 12.9564 0.930076 12.9081 0.908077 12.855C0.886078 12.8019 0.874756 12.745 0.874756 12.6875C0.874756 12.63 0.886078 12.5731 0.908077 12.52C0.930076 12.4669 0.96232 12.4186 1.00297 12.3779L2.55664 10.8248L2.26242 10.5311C2.09988 10.3686 1.97094 10.1757 1.88297 9.96336C1.79499 9.75101 1.74972 9.52342 1.74972 9.29357C1.74972 9.06372 1.79499 8.83613 1.88297 8.62378C1.97094 8.41144 2.09988 8.2185 2.26242 8.05599L3.53773 6.78123L3.19047 6.43451C3.10838 6.35242 3.06226 6.24107 3.06226 6.12498C3.06226 6.00888 3.10838 5.89754 3.19047 5.81545C3.27256 5.73335 3.3839 5.68723 3.5 5.68723C3.6161 5.68723 3.72744 5.73335 3.80953 5.81545L4.8125 6.81896L5.81547 5.81545C5.89756 5.73335 6.0089 5.68723 6.125 5.68723C6.2411 5.68723 6.35244 5.73335 6.43453 5.81545C6.51662 5.89754 6.56274 6.00888 6.56274 6.12498C6.56274 6.24107 6.51662 6.35242 6.43453 6.43451L5.43101 7.43748L6.5625 8.56896L7.56547 7.56545C7.64756 7.48335 7.7589 7.43723 7.875 7.43723C7.9911 7.43723 8.10244 7.48335 8.18453 7.56545C8.26662 7.64754 8.31274 7.75888 8.31274 7.87498C8.31274 7.99107 8.26662 8.10242 8.18453 8.18451ZM12.997 1.00295C12.9564 0.96227 12.9081 0.93 12.855 0.907983C12.8019 0.885966 12.745 0.874634 12.6875 0.874634C12.63 0.874634 12.5731 0.885966 12.52 0.907983C12.4669 0.93 12.4186 0.96227 12.378 1.00295L10.8248 2.55662L10.5312 2.2624C10.2026 1.93479 9.75757 1.75083 9.29359 1.75083C8.82962 1.75083 8.38457 1.93479 8.05602 2.2624L6.78125 3.53771L6.43453 3.19045C6.35244 3.10835 6.2411 3.06223 6.125 3.06223C6.0089 3.06223 5.89756 3.10835 5.81547 3.19045C5.73338 3.27254 5.68726 3.38388 5.68726 3.49998C5.68726 3.61607 5.73338 3.72742 5.81547 3.80951L10.1905 8.18451C10.2311 8.22516 10.2794 8.2574 10.3325 8.2794C10.3856 8.3014 10.4425 8.31272 10.5 8.31272C10.5575 8.31272 10.6144 8.3014 10.6675 8.2794C10.7206 8.2574 10.7689 8.22516 10.8095 8.18451C10.8502 8.14386 10.8824 8.0956 10.9044 8.04249C10.9264 7.98939 10.9377 7.93246 10.9377 7.87498C10.9377 7.81749 10.9264 7.76057 10.9044 7.70746C10.8824 7.65435 10.8502 7.60609 10.8095 7.56545L10.4623 7.21873L11.7376 5.94396C11.9001 5.78145 12.0291 5.58852 12.117 5.37617C12.205 5.16383 12.2503 4.93623 12.2503 4.70638C12.2503 4.47654 12.205 4.24894 12.117 4.0366C12.0291 3.82425 11.9001 3.63131 11.7376 3.46881L11.4434 3.17513L12.997 1.62201C13.0377 1.58138 13.07 1.53313 13.092 1.48001C13.114 1.4269 13.1253 1.36997 13.1253 1.31248C13.1253 1.25498 13.114 1.19805 13.092 1.14494C13.07 1.09183 13.0377 1.04358 12.997 1.00295Z" fill="#96979A"/>
</g>
<defs>
<clipPath id="clip0_12935_26726">
<rect width="14" height="14" fill="white"/>
</clipPath>
</defs>
</svg>
