<svg width="14" height="14" viewBox="0 0 14 14" fill="none" xmlns="http://www.w3.org/2000/svg">
<g clip-path="url(#clip0_13335_4388)">
<path d="M12.6875 7.00006V11.3751C12.6875 11.9552 12.457 12.5116 12.0468 12.9219C11.6366 13.3321 11.0802 13.5626 10.5 13.5626H7.4375C7.32147 13.5626 7.21019 13.5165 7.12814 13.4344C7.04609 13.3524 7 13.2411 7 13.1251C7 13.009 7.04609 12.8978 7.12814 12.8157C7.21019 12.7337 7.32147 12.6876 7.4375 12.6876H10.5C10.8481 12.6876 11.1819 12.5493 11.4281 12.3031C11.6742 12.057 11.8125 11.7232 11.8125 11.3751H10.5C10.1519 11.3751 9.81806 11.2368 9.57192 10.9906C9.32578 10.7445 9.1875 10.4107 9.1875 10.0626V7.87506C9.1875 7.52697 9.32578 7.19313 9.57192 6.94699C9.81806 6.70084 10.1519 6.56256 10.5 6.56256H11.7934C11.7106 5.65308 11.3707 4.78592 10.8135 4.06238C10.2562 3.33885 9.50462 2.7888 8.64643 2.47649C7.78824 2.16419 6.85891 2.10251 5.96698 2.29867C5.07505 2.49483 4.25734 2.94073 3.60938 3.58428C2.80364 4.37939 2.30668 5.43495 2.20719 6.56256H3.5C3.8481 6.56256 4.18194 6.70084 4.42808 6.94699C4.67422 7.19313 4.8125 7.52697 4.8125 7.87506V10.0626C4.8125 10.4107 4.67422 10.7445 4.42808 10.9906C4.18194 11.2368 3.8481 11.3751 3.5 11.3751H2.625C2.2769 11.3751 1.94306 11.2368 1.69692 10.9906C1.45078 10.7445 1.3125 10.4107 1.3125 10.0626V7.00006C1.31373 5.87345 1.64917 4.77252 2.27637 3.83663C2.90357 2.90074 3.79433 2.17196 4.8359 1.74254C5.87747 1.31313 7.02303 1.20238 8.12757 1.42431C9.23212 1.64624 10.246 2.19088 11.0409 2.98928C11.5657 3.51664 11.9812 4.14236 12.2638 4.8306C12.5464 5.51885 12.6903 6.25608 12.6875 7.00006Z" fill="#96979A"/>
</g>
<defs>
<clipPath id="clip0_13335_4388">
<rect width="14" height="14" fill="white"/>
</clipPath>
</defs>
</svg>
