<svg
  width="14"
  height="14"
  viewBox="0 0 14 14"
  fill="none"
  xmlns="http://www.w3.org/2000/svg"
>
  <g clip-path="url(#clip0_12935_26745)">
    <path
      d="M12.6875 6.99994V11.3749C12.6875 11.9551 12.457 12.5115 12.0468 12.9217C11.6366 13.332 11.0802 13.5624 10.5 13.5624H7.4375C7.32147 13.5624 7.21019 13.5163 7.12814 13.4343C7.04609 13.3523 7 13.241 7 13.1249C7 13.0089 7.04609 12.8976 7.12814 12.8156C7.21019 12.7335 7.32147 12.6874 7.4375 12.6874H10.5C10.8481 12.6874 11.1819 12.5492 11.4281 12.303C11.6742 12.0569 11.8125 11.723 11.8125 11.3749H10.5C10.1519 11.3749 9.81806 11.2367 9.57192 10.9905C9.32578 10.7444 9.1875 10.4105 9.1875 10.0624V7.87494C9.1875 7.52684 9.32578 7.19301 9.57192 6.94686C9.81806 6.70072 10.1519 6.56244 10.5 6.56244H11.7934C11.7106 5.65295 11.3707 4.7858 10.8135 4.06226C10.2562 3.33873 9.50462 2.78868 8.64643 2.47637C7.78824 2.16406 6.85891 2.10239 5.96698 2.29855C5.07505 2.49471 4.25734 2.94061 3.60938 3.58416C2.80364 4.37927 2.30668 5.43483 2.20719 6.56244H3.5C3.8481 6.56244 4.18194 6.70072 4.42808 6.94686C4.67422 7.19301 4.8125 7.52684 4.8125 7.87494V10.0624C4.8125 10.4105 4.67422 10.7444 4.42808 10.9905C4.18194 11.2367 3.8481 11.3749 3.5 11.3749H2.625C2.2769 11.3749 1.94306 11.2367 1.69692 10.9905C1.45078 10.7444 1.3125 10.4105 1.3125 10.0624V6.99994C1.31373 5.87332 1.64917 4.77239 2.27637 3.8365C2.90357 2.90061 3.79433 2.17184 4.8359 1.74242C5.87747 1.313 7.02303 1.20225 8.12757 1.42419C9.23212 1.64612 10.246 2.19075 11.0409 2.98916C11.5657 3.51652 11.9812 4.14224 12.2638 4.83048C12.5464 5.51873 12.6903 6.25596 12.6875 6.99994Z"
      fill="#96979A"
    />
  </g>
  <defs>
    <clipPath id="clip0_12935_26745">
      <rect width="14" height="14" fill="white" />
    </clipPath>
  </defs>
</svg>
