<svg width="14" height="14" viewBox="0 0 14 14" fill="none" xmlns="http://www.w3.org/2000/svg">
<g clip-path="url(#clip0_12811_354)">
<path d="M11.8125 2.1875H2.1875C1.95544 2.1875 1.73288 2.27969 1.56878 2.44378C1.40469 2.60788 1.3125 2.83044 1.3125 3.0625V10.9375C1.3125 11.1696 1.40469 11.3921 1.56878 11.5562C1.73288 11.7203 1.95544 11.8125 2.1875 11.8125H11.8125C12.0446 11.8125 12.2671 11.7203 12.4312 11.5562C12.5953 11.3921 12.6875 11.1696 12.6875 10.9375V3.0625C12.6875 2.83044 12.5953 2.60788 12.4312 2.44378C12.2671 2.27969 12.0446 2.1875 11.8125 2.1875ZM10.9375 9.625H8.36391C8.20134 9.62552 8.04187 9.58051 7.90356 9.49507C7.76525 9.40963 7.65363 9.28717 7.58133 9.14156L5.63609 5.25H3.0625C2.94647 5.25 2.83519 5.20391 2.75314 5.12186C2.67109 5.03981 2.625 4.92853 2.625 4.8125C2.625 4.69647 2.67109 4.58519 2.75314 4.50314C2.83519 4.42109 2.94647 4.375 3.0625 4.375H5.63609C5.79866 4.37448 5.95813 4.41949 6.09644 4.50493C6.23475 4.59037 6.34637 4.71283 6.41867 4.85844L8.36391 8.75H10.9375C11.0535 8.75 11.1648 8.79609 11.2469 8.87814C11.3289 8.96019 11.375 9.07147 11.375 9.1875C11.375 9.30353 11.3289 9.41481 11.2469 9.49686C11.1648 9.57891 11.0535 9.625 10.9375 9.625ZM10.9375 5.25H8.3125C8.19647 5.25 8.08519 5.20391 8.00314 5.12186C7.92109 5.03981 7.875 4.92853 7.875 4.8125C7.875 4.69647 7.92109 4.58519 8.00314 4.50314C8.08519 4.42109 8.19647 4.375 8.3125 4.375H10.9375C11.0535 4.375 11.1648 4.42109 11.2469 4.50314C11.3289 4.58519 11.375 4.69647 11.375 4.8125C11.375 4.92853 11.3289 5.03981 11.2469 5.12186C11.1648 5.20391 11.0535 5.25 10.9375 5.25Z" fill="#96979A"/>
</g>
<defs>
<clipPath id="clip0_12811_354">
<rect width="14" height="14" fill="white"/>
</clipPath>
</defs>
</svg>
