<svg width="14" height="14" viewBox="0 0 14 14" fill="none" xmlns="http://www.w3.org/2000/svg">
<g clip-path="url(#clip0_12811_362)">
<path d="M12.629 12.0313C12.5906 12.0978 12.5353 12.153 12.4688 12.1914C12.4023 12.2298 12.3268 12.25 12.25 12.25H1.74999C1.67323 12.2499 1.59785 12.2297 1.5314 12.1912C1.46496 12.1528 1.40979 12.0976 1.37144 12.0311C1.3331 11.9646 1.31292 11.8892 1.31294 11.8124C1.31296 11.7357 1.33318 11.6602 1.37156 11.5938C2.20445 10.1539 3.48796 9.12135 4.98585 8.6319C4.24493 8.19082 3.66928 7.51872 3.3473 6.71882C3.02532 5.91891 2.97482 5.03543 3.20356 4.20405C3.43229 3.37266 3.92761 2.63935 4.61345 2.11672C5.29928 1.59408 6.13772 1.31104 6.99999 1.31104C7.86227 1.31104 8.70071 1.59408 9.38654 2.11672C10.0724 2.63935 10.5677 3.37266 10.7964 4.20405C11.0252 5.03543 10.9747 5.91891 10.6527 6.71882C10.3307 7.51872 9.75506 8.19082 9.01414 8.6319C10.512 9.12135 11.7955 10.1539 12.6284 11.5938C12.6669 11.6602 12.6872 11.7357 12.6873 11.8124C12.6874 11.8892 12.6673 11.9647 12.629 12.0313Z" fill="#96979A"/>
<path d="M12.629 12.0313C12.5906 12.0978 12.5353 12.153 12.4688 12.1914C12.4023 12.2298 12.3268 12.25 12.25 12.25H1.74999C1.67323 12.2499 1.59785 12.2297 1.5314 12.1912C1.46496 12.1528 1.40979 12.0976 1.37144 12.0311C1.3331 11.9646 1.31292 11.8892 1.31294 11.8124C1.31296 11.7357 1.33318 11.6602 1.37156 11.5938C2.20445 10.1539 3.48796 9.12135 4.98585 8.6319C4.24493 8.19082 3.66928 7.51872 3.3473 6.71882C3.02532 5.91891 2.97482 5.03543 3.20356 4.20405C3.43229 3.37266 3.92761 2.63935 4.61345 2.11672C5.29928 1.59408 6.13772 1.31104 6.99999 1.31104C7.86227 1.31104 8.70071 1.59408 9.38654 2.11672C10.0724 2.63935 10.5677 3.37266 10.7964 4.20405C11.0252 5.03543 10.9747 5.91891 10.6527 6.71882C10.3307 7.51872 9.75506 8.19082 9.01414 8.6319C10.512 9.12135 11.7955 10.1539 12.6284 11.5938C12.6669 11.6602 12.6872 11.7357 12.6873 11.8124C12.6874 11.8892 12.6673 11.9647 12.629 12.0313Z" fill="#96979A" fill-opacity="0.5"/>
</g>
<defs>
<clipPath id="clip0_12811_362">
<rect width="14" height="14" fill="white"/>
</clipPath>
</defs>
</svg>
